<svg xmlns="http://www.w3.org/2000/svg" xmlns:xlink="http://www.w3.org/1999/xlink" viewBox="0 0 1609.2 892.4" xmlns:v="https://vecta.io/nano"><style><![CDATA[.k{fill:#1a2e35}.l{opacity:.5}.m{fill:#bdc5d1}.n{fill:#97a4af}.o{fill:#fff}.p{opacity:.4}.q{fill:#ffbf9d}.r{enable-background:new}.s{fill:#e1e1e1}.t{fill:#375a64}.u{fill:#ff9a6c}.v{stroke:#489c71}.w{stroke-width:3}.x{stroke-miterlimit:10}.y{fill:#cbd7ef}.z{fill:#377dff}.AA{fill:#c78976}.AB{fill:#bf654e}]]></style><path d="M811 792.1c281.1.0 508.5 22.3 508.5 50.2s-227.4 50.2-508.5 50.2-508.5-22.3-508.5-50.2S530.6 792.1 811 792.1z" opacity=".1" fill="#bbcff2" class="r"/><g class="l"><g class="m"><path d="M162.186 117.16c-1.4 1.4-.9 6.5-.9 8.3-.1 2.9.1 5.8.4 8.6.2 1.9 1.1 20.3 3.6 18.9 1.4-.8.5-6.1.5-7.8 0-3.8-.2-7.5-.5-11.3-.1-3.2-.2-6.8-.1-10.2 0-.9.8-10.3-3-6.5"/><path d="M223.886 114.96c-12.2.1-24.3.7-36.5 1.1l-17.6.7c-2 .1-6.3-.5-7.9.5-3.7 2.3 2.3 2.9 3.9 2.9l72.2-2.1 35.5.3c4.5 0 9.5-2 10.6 3.2 1.3 5.9-.2 12.5-.6 18.5-.2 4-.2 7.9 0 11.9.1 2.5-.2 5.4.3 7.9.5 2.4 2.2 3.9 3.8 1.2 1-1.6.5-5.6.5-7.5.1-2.5 0-5 0-7.6 0-6.1.9-12.2.7-18.4-.1-4-.3-11.2-5.3-12.1-5.5-1.1-12.2 0-17.9-.1l-41.7-.4"/><path d="M190.386 153.26l-13.8.1c-4 .1-10.2-.7-13.8.6-2.5 1-3.2 3.8 0 4.5 3.4.8 8.6-.5 12.2-.5 18.2-.4 36.5-.7 54.7.5 17 1.1 34.3 2.2 51.3 1 1.4-.1 8.7-.4 5.4-3.2-2-1.6-9.8-.5-12.3-.6l-26.7-.6c-8.8-.4-17.6-1.4-26.3-1.5-10.3-.4-20.5-.3-30.7-.3m-3.8-5.3h0c-6.2 0-13-3-14.1-9.6-.1-.4-.1-.8 0-1.2 0-.5 0-.8-.1-1.3-.1-.3-.2-.5-.4-.7-.3-.3-.4-.6-.5-1 0-1.8 1.1-2.8 2.3-4l1.4-1.4c2.4-2.8 4-4.2 7.2-5.5 1-.4 2.1-.5 3.1-.5 3.3.2 6.5 1.4 9 3.5 2.8 2.2 4.8 5 5.4 7.6.6 2.8.1 5.8-1.5 8.2a12.36 12.36 0 0 1-7.8 5.4c-1.4.4-2.7.5-4 .5zm-9.7-14.3h0c-.9 2.3-.7 4.8.7 6.8 1.8 2.6 5.4 4.2 9.1 4.2 2.2 0 4.2-.5 6-1.8 2.5-1.6 3.7-4.8 2.7-7.7-1.3-4.2-5.6-7.8-9.7-8a1.62 1.62 0 0 1-.9.5c-.1 0-.3 0-.4-.1h0c-.1-.1-.3-.1-.4-.1h-.3c-1.1.5-2.2 1.1-3.1 1.8l-.2.2-.1.2c-1 .6-1.8 1.4-2.6 2.3 0 0-.1.2-.2.5l-.6 1.2h0 0zm2.4 1c0 2.9 4.6 2.9 4.6 0 0-2.8-4.6-3-4.6 0m5.8-.5c0 2.3 3.6 2.3 3.6 0s-3.6-2.4-3.6 0m1.1 4.7c-1.2.5-2.6-.5-3.6.1-1.7 1.1 0 2.1.9 2.5 4.1 2 4.8-3.4 2.7-2.6m22-.8c-.2 0-.4 0-.5-.1-1-.3-1.4-.8-1.3-1.6.2-1.1 1.4-2.7 3.3-4.2 1.9-1.4 3.8-2.3 5-2.3h.3c1.2.3 2.3.8 3.3 1.5 1 .8 2.2 1.4 3.4 1.5h.6c1.7-.2 3.4-.7 4.9-1.7 1.1-.6 2.3-1.2 3.5-1.5.5-.1 1.2-.2 1.8-.2 2.3 0 4.2 1 6 1.9h0c1.9.9 3.8 1.9 5.9 1.9.9 0 1.8-.2 2.7-.5.3-.1.6-.3 1-.5h0c.4-.2.7-.4 1.1-.5 1.3-.7 2.6-1.2 4-1.4h.4c1.9 0 3.6 1.1 5.1 2.1l1.9 1.2a1.69 1.69 0 0 0 1 .3c.7.2 1.4.4 1.6 1.3.1.4 0 .7-.2 1-.3.3-.6.4-1 .4-.3 0-.6 0-.9-.1h-.4c-1.3-.3-2.5-.8-3.5-1.6s-2.2-1.4-3.4-1.5h-.4c-1.6.2-3.2.7-4.5 1.5-1.1.6-2.3 1.1-3.4 1.4-.5.1-1.1.2-1.6.2-2-.1-4-.6-5.7-1.7l-.6-.3c-1.8-1-3.2-1.7-5-1.7a6.71 6.71 0 0 0-2.8.6l-2.3 1.1c-1.9.9-3.6 1.7-5.7 1.7-.5 0-.9 0-1.4-.1-1-.3-1.9-.6-2.8-1.2-1-.6-2.2-1.1-3.3-1.3h-.3c-1.1.1-2 1.2-2.8 2.3-.7 1-1.7 2.1-3 2.1z"/></g><g class="n"><path d="M236.186 171.56c-12.5.1-25 .3-37.5 1.3l-33 3.3c.1.4 4 1 4 1.1-.3-.6-.9-.9-1.8-.8 28.6 0 57.2-2.5 85.8-2.1l21.6.3c1.8.1 6.2 1.4 7.7.5 3.7-2.2-3.1-2.3-4.1-2.4-14.2-1.2-28.5-1.3-42.7-1.2m-74.2 6.1c-1.9 1.9-.2 8.6-.1 11.2.1 3.7 0 7.4.4 11 .3 4.2 1 8.6 2.1 12.7.6 2.3 2.7 5.8 3.6 1.7.6-2.9-.3-6.8-.6-9.7-.4-4-.5-7.8-.5-11.8 0-3.4-.1-6.9-.4-10.4-.4-1.8-1.3-8-4.5-4.7"/><path d="M208.986 212.06l-26.7.9c-3.6.3-7.3.5-10.9 1-.7.1-8.9.5-5.2 3.4 1.6 1.4 8.5-.5 10.6-.7 3.8-.4 7.6-.5 11.3-.7 8.7-.4 17.6-.7 26.3-.5 16 .3 31.9.4 47.9.1 2.3-.1 20.1.5 20.7-2 .5-1.9-5.9-1-7-1-4.2.1-8.6.1-12.8.1l-54.2-.6m71-37.6c.3 7.9 1.6 15.8 2.1 23.7.2 3.6.5 7.2.6 10.9.1 1.2-.5 4 1 4.7 1.9.9 2.2-.9 2.5-2.2 1-3.6.4-8.4.3-12.1-.1-3.6-.1-7.2-.4-10.8-.3-3.7-1-7.3-1.4-11-.2-1.5.4-4.1-1.3-5.1a2.28 2.28 0 0 0-3.1.8c-.2.4-.3.7-.3 1.1m-91.3 33.3h0c-2.4 0-7-.4-10.7-2.2s-5.6-4.7-5.7-8.4c.1-3.7 1.4-7.3 3.8-10.2 1.2-1.4 2.6-2.7 4.1-3.7 1.5-.9 3.3-1.5 5.1-1.6h.6c1.7 0 3.5.4 5.1 1 1.7.6 3.2 1.5 4.7 2.7 1.4 1.1 2.7 2.4 3.7 4 1 1.4 1.7 3.1 2.2 4.7.8 3.1.2 6.3-1.8 8.8-1.4 1.6-3 2.9-4.9 3.6-1.9.9-4 1.3-6.2 1.3h0 0zm-3.4-22.5a9.55 9.55 0 0 0-7 3.5c-1.8 2.1-2.8 4.8-2.9 7.5-.2 1.8.5 3.7 1.8 5 1.4 1.4 3.2 2.3 5.2 2.7 2 .5 4.1.7 6.1.6h.5c3.5 0 6.8-1.4 8.5-3.7 1.4-1.8 1.7-4.1 1-6.2-.5-1.4-1.1-2.7-2.1-3.9-.9-1.2-2-2.2-3.2-3.1-1.5-1.2-3.4-1.8-5.3-2-1 .1-1.8-.1-2.6-.4zm-7.2 7.7c0 2.3 3.7 2.3 3.7 0s-3.7-2.4-3.7 0m7.7-1c0 2.3 3.7 2.3 3.7 0 0-2.4-3.7-2.5-3.7 0m-4.2 5.3c-2.4 2.4 6 6.6 8 3.2 1.6-2.7-1.9-1.8-3.2-2-1.4-.1-3.7-2.3-4.8-1.2"/><path d="M208.586 196.36h0c-.5 0-1-.2-1.4-.5-.4-.5-.5-1.2-.5-1.8.1-2.9 8-5.6 10.5-6 .5-.1.9-.1 1.3-.1 1.9.1 3.7.7 5.3 1.7h0c1.6 1 3.5 1.5 5.4 1.7.5 0 1.1-.1 1.6-.2 1-.3 2-.5 2.9-1 1.3-.5 2.6-1 4.1-1.2h.6c1.4 0 2.9.5 4.1 1.4.7.5 1.4.9 2.3 1.3.5.2 1.1.4 1.6.4.4 0 .8 0 1.2-.1h0c.5-.1.8-.1 1.3-.1h.4c1.2.1 2 .5 2.1 1.1.2.7-.5 1.4-1.7 2.1-.8.5-1.6.6-2.5.6-1.4-.1-2.8-.6-4-1.4s-2.5-1.4-4-1.6h-.6c-1.8.1-3.5.6-5.1 1.4h-.1c-1.7.8-3.5 1.4-5.3 1.4h-.3c-1.7-.2-3.3-.6-4.9-1.4-1.4-.7-2.8-1.2-4.3-1.3-.8 0-1.7.2-2.5.5-.3.1-.8.4-1.4.7-1.8.9-4.4 2.4-6.1 2.4zm58.5 1.7h0c-1.4-.1-2.7-.7-3.7-1.7a8.12 8.12 0 0 1-2.2-3.8c-.6-2.3.5-4.6 2.7-5.5.4-.2.7-.3 1.2-.2 1.9.2 3.8 1 5.2 2.3 1 1 1.6 2.3 1.5 3.8 0 1.6-.7 3.1-1.9 4.1-.7.6-1.7 1-2.8 1zm-1.7-7.7c-.5.7-.6 1.7-.2 2.4.4.9 1.1 1.5 1.7 1.5h.3c.7-.2 1.1-.5 1.2-.8 0-1-2.5-2.8-3-3.1h0z"/></g><g class="m"><path d="M198.786 231.76c-8.6 0-17.4-.2-26 .4-1.4.1-7-.2-7.7 1.4-1.4 2.8 4.3 1.4 5.1 1.4 17.2-1.7 35.2-.7 52.5-.3l42.3 1.4 11.2.6c1.2.1 4.2.9 4.5-1.1.3-1.8-3.6-1.4-4.5-1.4l-22.6-1.3c-18.3-1.1-36.6-1.1-54.8-1.1"/><path d="M164.686 234.86c-1.6 1.6-.9 7.7-.9 9.8l-.4 10.6a104.72 104.72 0 0 0 .3 11.2c.1 1.5 1.4 9.1 3.4 4.8.9-1.9 0-7.3 0-9.5 0-4 .3-7.9.5-11.9.2-3.4.2-6.8.4-10.2-.1-1.1 0-8.2-3.3-4.8"/><path d="M282.086 266.56c-8.5.9-17 .5-25.5 1.1-7.3.5-14.6.8-21.9.9-16.6.4-33.1.7-49.7 2.1l-11.3.8c-1.9.1-9.8-.8-10.4 1.2-1 3.4 7.5 2.1 9.3 2 4.1-.1 8-.5 12.1-.7 16.8-1.3 33.8-1.7 50.6-2.2 9.2-.3 18.3-1 27.5-1.5 4.6-.3 9.2-.3 13.7-.6 1.2-.1 5.4.1 6.3-.9.4-.7.6-2.3-.7-2.2"/><path d="M279.186 235.46l1 24.2c.1 2.4-.6 6.8.7 8.9 2.2 3.4 3.9-.2 4.2-2.3 1.3-6.8-.1-14.3-.5-21.1-.1-2.6.6-8.4-.5-10.7s-5-2-4.9 1m-14.2 22.8c-.7 0-1.5-.2-2.2-.4-.9-.4-1.8-.9-2.4-1.6s-1.2-1.6-1.4-2.5a5.06 5.06 0 0 1 .5-4c.4-.7.6-1.5.7-2.3 0-.3 0-.5-.1-.8-.2-.6-.2-1.3.1-1.9.3-.4 1-.5 2.2-.5h1.2.5c.4-.1.7-.1 1.1-.1 1.5 0 3.1.9 3.8 2.3.9 1.4 1.4 3.2 1.4 4.9.1 2.1-.6 4.1-2 5.8-.9.7-2.1 1.1-3.4 1.1zm0-11.3h0c-2 .9-3.6 4.5-3.1 6.7.2 1.2 1.3 1.9 2.4 1.8.3 0 .5 0 .7-.1 1.7-.3 2.4-2 2.5-3.5a6.35 6.35 0 0 0-.5-3.1c-.3-.8-1.1-1.5-2-1.8zm-81.2 15.1h0c-4.2 0-8.2-2.2-10.5-5.8-2-3.2-2.1-7.3-.3-10.6-.2.2-.5.3-.7.4-.6 0-1-.9-1.1-1.4-.2-.8 1.1-2.3 2-3.2.2-.2.4-.5.5-.5 1.9-2.3 4.1-4.4 7.4-4.5h.4c2.9.1 5.6 1.1 7.7 3 2.3 1.9 4 4.2 5 7 .9 2.2 1.2 4.5.8 6.8s-1.5 4.5-3.4 6c-2.2 1.8-4.9 2.8-7.8 2.8zm-3-19.8c-.3 0-.5 0-.8.1-1.3.5-2.4 1.4-3.2 2.5s-1.4 2.3-1.8 3.7c-.7 2.3-.5 4.6.6 6.7 1.2 1.9 3.2 3.3 5.3 3.8.9.3 1.8.4 2.8.4 1.7 0 3.4-.5 4.9-1.4a8.01 8.01 0 0 0 3-4.2c.8-2.7.4-5.7-1.3-8-1.6-2.3-3.9-4.1-6.5-5.2v.3h0v.1h0v.1h0l.1.5c-.2.8-1.1.9-1.9.9h-.7.1c-.2-.3-.4-.3-.6-.3zm.1-2.9c-1.4 0-2.6.5-3.7 1.4 1.1-.7 2.5-1.3 3.7-1.4h0zm-2.8 7.8c0 .6.5 1.2 1.3 1.2.6 0 1.2-.5 1.2-1.2 0-.6-.5-1.2-1.3-1.2-.7.1-1.2.5-1.2 1.2m4 .2c0 .7.6 1.2 1.3 1.2s1.2-.5 1.2-1.2-.6-1.2-1.3-1.2c-.6.2-1.1.6-1.2 1.2m1.9 5.6c-1.2.1-5.3-.3-6 .7-1.3 1.7.7 1.7 1.7 1.9.9.2 4.7.1 5.2-.7.4-.6.3-2-.9-1.9m13.5 2.9h0c-.6 0-1.1-.5-1.4-1.3-.7-1.8 2-4.1 2.9-4.9 1.1-1 2.4-1.6 4-1.6.8 0 1.6.2 2.3.5l1.8.7c.9.5 2 .7 3 .8.5 0 1-.1 1.4-.2l3-1c1.4-.6 2.8-1.1 4.3-1.3h.5c1.6.1 3.2.5 4.8 1.2 1.1.5 2.1.7 3.2 1 .7.2 1.4.2 2.2.2 1.7 0 3.4-.5 5-1.1 1.5-.6 3.1-1 4.7-1.1 1.1 0 2.2.2 3.2.5.2.1.5.1.8.3 1.9.5 5.8 1.6 5.9 2.3.2.4.1.9-.1 1.3-.3.4-.7.5-1.2.5-1.2-.1-2.3-.4-3.3-.7h0l-.2-.1-1.3-.5c-1.4-.6-3-1-4.5-1.1-.7 0-1.4.1-2.1.3-.8.3-1.5.5-2.3.7-1.8.7-3.8 1.1-5.8 1.2-.5 0-1.1 0-1.6-.1-1.1-.2-2.1-.5-3.1-.8-1.4-.5-2.7-.8-4.1-.9h-.1c-1.7.1-3.4.6-4.9 1.4-1.1.5-2.3.9-3.3 1.2-.4.1-.7.1-1.2.1-1.1-.1-2.3-.3-3.2-.7h-.1c-1-.4-2-.6-3-.6-.3 0-.5 0-.7.1-.9.4-1.6 1-2.3 1.7-.9.7-2.1 2-3.2 2z"/></g></g><g class="p"><path d="M385.963 296.1h0c-.6 0-1.3 0-1.9-.1-1.3-.2-2.1-.5-2.3-.9-.3-.5-.1-1.2.2-2 .2-.5.4-1 .5-1.5.5-2.2.1-4.9-.3-7.6l-.5-4c-.6-16.5-.4-33 0-47.3l.3-10.3c0-.7 0-1.5.1-2.3v-.8c.1-1.4.1-3-.1-4.5-.1-.4-.2-.7-.3-1-.3-.5-.4-.9.3-1.9.9-1.2 3.2-1.4 5.2-1.4h1.9.1 1.5 1c3.8-.4 7.4-.6 10.8-.8 11-.5 22.1-1.3 32.7-2 23.2-1.5 47.3-3.2 71-3.2h2.1c4.2-.2 8.4.2 12.5 1 .9.2 1.7.4 2.6.5h.4.5 0 .5c.4 0 .6.1.9.2 1.1.5 1.9 1.4 2.1 2.7.5 1.6 0 3.8-.4 5.9-.2 1.1-.4 2.1-.5 2.9a144.73 144.73 0 0 0-.5 12.1v1.4c-.1 6.8.2 13.6.9 20.4.2 1.7.5 3.4.7 5 .6 4.4 1.3 9 1.5 13.7.1 1.5.1 3.2.2 4.7h0l.3 6.7v1.2c0 .8 0 1.6.2 2.4.1.4.4.7.6.9.2.1.3.3.4.5.3 1.1.4 1.8 0 2.3s-1 .7-2.3 1.1c-4.9 1.4-10.4 1.5-15.6 1.5h-3.1-.3-2.7.1l-50.1.5-14.7.3c-11.5.2-23.3.4-34.9 1.4-2.7.3-5.5.5-8.2.7l-3.2.3c-1.2.1-2.3.3-3.7.5-2.1.5-4.4.7-6.5.8zm48.3-61.5c3.7 0 7.6 1.3 12 4 3.7 2.3 7.1 5 10.4 7.7l.5.5 3.5 3 8 6.6.5.5.1.1c2.3 1.8 4.7 3.6 7.2 5.2.9.7 2.1 1.2 3.2 1.3 1.3 0 2.3-.7 4.1-1.9.6-.5 1.3-.8 1.8-1.3 5-3.4 9.7-6.6 15.9-7.1.5-.1 1.2-.1 1.8-.1 6.8 0 13.8 3.1 18.4 5.7-2.4-12.8-3.2-25.8-2.2-38.9l.6-6.6c0-.2.1-.5.2-.9a5.24 5.24 0 0 0 .3-2.5c-.5-.9-2.2-1-3.5-1h-1.2-.1-1-.4c-1.7-.1-3.5-.1-5.4-.1-4.3 0-8.8.2-13.1.3-1.7-.1-3.7-.1-5.7 0-17.6.5-36 1.4-54.7 3l-21 1.4-24.4 1.6c-3.1.3-3.1.5-3.1 3v1c0 .8 0 1.6-.1 2.4h0v.5l-.4 13.3-.8 17.1-.5 9.8c4.6-2.8 9-6 13.2-9.1 4.1-3 8.4-6 12.8-8.7 6.3-4 12.6-7.6 19.4-9.3 1.3-.5 2.6-.5 3.7-.5z" class="n"/><g class="m"><path d="M522.963 158.9c0 2.5-.4 6.2.7 8.6 1.4 3 3.3 2.1 3.8-.7.3-1.6.3-6.4-.3-7.8-.7-2.1-4.2-3.5-4.2-.1"/><path d="M527.163 159.9c-2.3.1-9.2-.5-10.8 1.4-2.7 3.2 2.1 3.8 4.1 3.6 2.3-.2 9.6.3 11.3-1.6 2.6-3.1-2.8-3.5-4.6-3.4m-127.4 165.8h0c-2.9-.1-5.8-1-8.1-2.6-2.4-1.5-4.2-3.8-5.3-6.4a10.41 10.41 0 0 1 1-9.1c.8-1.4 2-2.7 3.3-3.7 1.4-1 3-1.7 4.7-2 .9-.2 1.8-.2 2.6-.2 2.6 0 5.1.6 7.3 1.9 2.3 1.3 4 3.3 4.9 5.8 1 3.1.8 6.4-.5 9.3-.6 1.4-1.4 2.8-2.6 4-1.1 1.2-2.4 2-3.9 2.5-1 .3-2.2.5-3.4.5zm-.9-18.9c-3.2 0-7.1 1.6-8.5 4.7a5 5 0 0 0 0 3.8c1.1 2.5 4.1 4.6 6.6 5.5.9.4 1.9.5 2.8.5 3.9 0 5.9-3.3 6.2-6.4.5-4-2.3-7.7-6.4-8.1h-.7 0zm59.6 1.9c-2.6.2-4.8 2-7.4 2.3-2.4.3-4.4-.5-6.8-1.2-2.6-.9-5.4-1.1-8.1-.5-2.2.5-4.2 2-6.5 2.2-4.4.4-9.5-4.7-12.9 1-1.6 2.7.7 4.5 3.2 3.2 2.5-1.4 1.4-1.8 4.5-1 2.6.6 4.8 1 7.5.1 2.4-.8 4.5-2.3 7.1-2.5 2.5-.2 4.8 1 7.2 1.5 2.9.5 5.8.3 8.6-.8 2.7-.9 3.8-1.4 6.5-.6 1.7.5 5.5 2.1 7.2.8 2.9-2.3-1-2.6-2.5-2.9-2.5-.5-5.1-1.9-7.6-1.6m59.1 10.6h0c-2.5 0-5-1-6.8-2.7-1.7-1.6-2.8-3.8-3.1-6.1-.3-2 .1-4 1.1-5.7 1.3-1.9 3.2-3.3 5.5-3.9.2 0 .4-.1.5-.1 1.6 0 4.6 1.4 5.9 2.2 1.8 1.1 3.2 2.7 3.9 4.7 1 2.6.8 5.6-.5 8-1 1.8-2.7 3.1-4.8 3.3-.4.3-1.1.3-1.7.3zm-2.7-12.7c-1.4.3-2.3 1.6-2.1 3.1.3 1.2.8 2.2 1.7 3 .8.8 1.9 1.4 3.1 1.4h.2c1.4-.1 2.3-.7 2.3-1.9-.1-1.3-.7-2.5-1.6-3.4-.9-1.3-2.1-2-3.6-2.2z"/></g></g><g class="l"><path d="M730.6 177.4c-.8-2.1.4-3 2.1-3.4-.2-1.5-.3-3-.2-4.5l-.2-7.7c-.3-6.1-.4-12.3-.9-18.5-.5-5.9-1.6-11.6-1.6-17.5 0-4.1-1.2-14.1 2.3-16.9 6-3.5 3.7 8.9 3.5 11.1-.2 6.4 0 12.8.7 19.1.6 5.9-.1 11.8-.4 17.6-.1 3.2-.2 6.3-.5 9.4-.1 1 0 5.4-.5 7.7h2.2 1.1l14.7-.5 56.4-1.3c17.7-.8 35.6-1 53.4-1.3 1 0 1.8.9 1.7 1.9 0 .5-.2.8-.5 1.2-1 1.3-5.5 1-6.9 1.1-5 .4-10 .5-15 .6-10.6.1-21.2.5-31.7 1.2-18.7 1.1-37.5 1-56.4 1.7l-13.7.5c-1.3 0-3.4.5-5.5.5-1.8-.2-3.6-.6-4.1-2zm135.6-16.5l-1.5-20.5c-1-11.1-1.9-21.8-1.9-32.9 0-2.6 3.2-3.2 4.6-1.4 1.4 1.7.5 6.9.5 8.9.1 6.8.7 13.4 1.4 20.2l1.5 20c.2 3.1 2.6 15.4-.9 17.2-.4.2-.7.3-1.1.3-3.1 0-2.5-9.9-2.6-11.8h0zm-134-52.9c-1.2-.5-2.1-1.1-1.4-2.4.5-1.1 2.3-1 3.7-.9.5 0 .8.1 1.1.1 4.4-.1 8.8-.4 13.3-.6 10.1-.6 20.1-1.4 30.2-1.5l57.5-1.5c5.7-.1 11.3.1 17 .4 2.5.2 5 .3 7.6.4.5 0 1.1 0 1.8-.1 1.5-.1 3.3-.2 4.2.3 5 2.6-5.2 3-6.5 2.9-5.2-.1-10.4-.5-15.6-.6-19.2-.5-38.4.7-57.6 1.4l-27.6 1-15.1.9c-2.3.1-4.7.3-6.9.3-1 0-2.7.3-4.1.3-.5-.3-1.1-.3-1.6-.4z" class="n"/><g class="m"><path d="M755 162.3c-1.3 0-2.1-.3-2.2-1.8-.2-1.9 2.9-2.7 4.1-3.3 4.2-2.2 8.5-4.2 12.8-6.2 8.5-4.1 17-7.9 25.7-11.7l.2-.1-14.3-4.8c-2.7-.9-22-5.6-21.2-8.2.8-2.9 17.7 3.9 20.4 4.7l19.3 6.4c15.3-6.8 30.8-14.2 46.8-19.3 1-.3 1.6.7 1.4 1.6-.3 1.2-3.9 2.1-4.9 2.5l-11.8 5.2-25.8 11.4-.5.3 18 6.7 9.5 3.8c1.6.6 8.2 2.2 8.6 3.8.5 2.3-6.6-.5-7.7-.9-3.2-1-6.3-2.2-9.5-3.2l-21.1-7.6-2-.7-22.4 10.2-11.9 5.7c-2.9 1.4-8.1 5.5-11.5 5.5h0zm-10 43.6c-2.6.1-5.1-.7-7.2-2.3-1.3-1-2.2-2.3-2.6-3.8-.3-1.2-.4-2.3-.2-3.6h-.4c-.5 0-1.1-.3-1.4-.8-.3-3.3 2.8-6.2 4.6-7.7 2.5-2 5.4-3.3 8.6-4 .4-.1.7-.1 1.1-.1 2.6.1 5.1 1.2 6.8 3.2 2.1 2.3 3.2 5.1 3.2 8.2-.1 2.8-1.3 5.4-3.3 7.4-2.1 1.9-4.7 3.1-7.4 3.3-.7.2-1.2.2-1.8.2zm2.6-18.6c-.8-.1-1.5.3-1.9 1a3.16 3.16 0 0 1-1.4 1.4c-.4.1-.7.2-1 .2-.5 0-.9 0-1.3.2-1 .6-1.8 1.5-2.3 2.6l-.1.1c-1.4 2.4-1.8 5-.9 6.8.8 1.7 2.5 2.8 5 3.2.5.1 1.1.1 1.6.1 4.1 0 8.6-2.3 9.1-7.2.4-4-2.3-7.7-6.2-8.4h-.6zm21.9 3.8c-2.2 1.2-5.6 2.9-6.8 5-1.4 2.3.1 4.8 2.9 3.7 2.3-.9 3.6-3.6 6-4.4 2.1-.8 3-.4 5.1.4 2.3.8 4.2 1.5 6.8 1.4 3.1-.3 5.8-2.1 8.8-2.4 2.5-.4 4.7.6 7.1 1.1 2.8.5 4.7-.6 7.4-1.2 1.8-.4 5 1.2 6.3.6 3-1.3-.2-2.9-1.8-3.4-2.8-.9-4.5-.1-7.1.6-2.9.8-4.1.2-6.8-.5-5.5-1.4-9.8 2.1-15 1.4-4.8-.7-7.8-5-12.9-2.3m87.3 10.1h0c-2.8.1-5.5-1-7.6-2.9-1.3-1.4-1.9-3.2-1.6-5 .1-2.5 1.4-4.8 3.3-6.3 2-1.4 4.3-2.3 6.8-2.7.5-.1 1-.2 1.4-.2 1.8 0 3.5.8 4.6 2.3 1.1 1.4 1.7 3.2 1.7 5.1a10.1 10.1 0 0 1-1.8 6.3c-1.4 2-3.6 3.2-6 3.3-.2.1-.4.1-.8.1zm2.3-12.8c-2.3 0-5.1.7-6.4 2.4a4.43 4.43 0 0 0-1.1 3.3c.2 1 .7 1.8 1.6 2.3 1 .7 2.3 1.2 3.5 1.2 2.1 0 4-1.3 4.7-3.2.8-2.1.2-4.3-1.7-6-.2.1-.4 0-.6 0z"/></g></g><g class="l"><g class="m"><path d="M129.5 442.29c-7.7.1-15.2.4-22.8.8-7.2.5-15 .1-22.1 1.5-2 .4-4.8 2.2-2.1 4.2 1.9 1.4 8.7-.2 11-.4l24.9-1.4c7.8-.3 15.7-.4 23.5-.5 1.2 0 3.2-.4 4.4-.1 1.7.5 1.4.6 1.4 2.8.3 4 .2 7.9.1 11.8l-.2 11.4c0 2.7-.9 8.1.5 10.5 2 3.4 4-.3 4.1-2.5.3-4.3.2-8.7.2-13.1l-.1-12.2c-.1-3 .4-8.1-1.3-10.7-1.6-2.7-5.5-2.2-8.3-2.3l-13.2.2"/><path d="M81.3 447.09c0 7.7-.9 15.2-1.1 22.9-.1 3.5-.4 7.4.5 10.8.9 3.5 3.8 4.2 4.1.4.6-7.8.5-16 1-24 .2-2.8 1.3-7.9.2-10.5-.9-2.3-4.7-2.8-4.7.4"/><path d="M152.4 480.79c-13.1 1.7-26.9 1.1-40.2 1.4l-19.1.2c-2.3 0-7.8-.8-9.8.5-3.1 2 .3 3.5 2.3 3.6 12.6.3 25.3-.3 37.8-.7l16.9-.7a62.94 62.94 0 0 0 10.6-1.5c.7-.2 2.3-.2 2.4-1.2.2-.7 0-1.7-.9-1.6m-54.8 11.1c-3.7 0-14.7-1.7-16.2 1.9-2 4.8 5.9 3.7 8 3.6l14.4-.2 14.1-.2c1.4 0 4.6.5 5.3-1.1.5-1 .2-2.3-.8-2.8-.1 0-.1-.1-.2-.1-2.7-1.6-9.5-.6-12.7-.8-3.8 0-7.9-.3-11.9-.3m44.5.9c-2.1.1-6.3-.7-8.2.2-2.2 1.1-1.4 2.8.5 3.5 1.3.5 6.5.3 7.7-.4 1.3-.5 2.8-3.5 0-3.3m23-44.9c-2.3.6-1.5 13.3-1.6 15.3-.2 5.5-.8 12.4 1.1 17.7 1.2 3.4 3.4 2.9 3.1-.6-.4-3.2-.9-6.2-1.2-9.4-.6-7.1-1.4-14.7-.9-21.8.3.5 2.3 4.2 2.9 4-.2.1-2.5-5.4-3.4-5.2"/><path d="M190.2 443.29l-13.6.3c-3.6.1-9.3-.5-12.5 1-4 1.8-2.1 5.9 1.6 5.9 3.2.1 6.8-.6 10-.8 8.9-.3 17.8-.4 26.7-.5 8-.1 16.4.8 24.4-.5 1.2 10.5-2 21.1-.9 31.7.2 1.6.1 4 2.2 4.3 2.6.5 2.8-2.2 2.9-4.1.3-5.4.1-10.7.5-16.1.4-5 1.1-10.1.5-15-.7-6.1-3.7-5.7-8.9-5.9-11-.4-21.9-.5-32.9-.3"/><path d="M175.1 480.59c-2.3.1-6.1-.6-7.6 1.5-1.5 2.3.3 4.3 2.5 4.8 2.6.5 6.1-.2 8.8-.2h8.6c12.2.1 24.6.3 36.8-.3 1.7-.1 6.6.5 7.7-1.2 1.1-1.4.4-2.8-1.1-3.5-2.3-1.2-6.9-.7-9.5-.8l-9.4-.2c-12.1-.1-24.6-.5-36.8-.1m10.4 10.6c-4.6.1-9.5-.1-14 .5-4 .6-4.5 4.5-.2 5 4 .5 8.7-.4 12.7-.6 1.4-.1 3.1 0 3.7-1.5.5-1.3-.2-2.7-1.5-3.2-.3-.2-.5-.2-.7-.2m34.6.3c-2.4.1-9.6-1-10.8 1.8-2 4.7 7.7 2.9 9.5 2.8 2.3-.1 11.4 1.3 11.4-2.4.1-3.6-7.8-2.2-10.1-2.2"/></g><g class="n"><path d="M80.8 514.69c0 8.5-.5 17 .3 25.5.4 3.5.3 10.2 2.3 13.1 1.4 2.1 3.4 2 4.2-.5.5-1.7-.3-5-.5-6.8l-.3-5.2c-.2-4.5-.2-8.9-.1-13.4.1-3.9 1-8.9.1-12.6-.8-3.5-6-4.4-6-.1"/><path d="M165.9 507.19c-14.7.4-29.4 0-44.1.8-7.2.4-14.4 1.2-21.6 1.9l-10.6 1.3c-1.1.1-9.9.5-6.6 3.9 1.4 1.4 6.1-.1 7.9-.3 3.5-.5 7.1-.8 10.6-1.2 6.8-.7 13.5-1.4 20.3-1.8 15.9-.9 32.1-.6 48-1.2 4.3-.2 8.6-.3 13-.1 1.2.1 9.5.5 5.9-2.6-1.7-1.4-8.2-.7-10.4-.7-4-.2-8.2-.1-12.4 0"/><path d="M84.4 556.59c-.4-4.8 11.7-4.8 15.2-5.1 14.9-1.4 29.9-1.1 44.8-.9 7.2.1 14.4.4 21.5-.1s14.6-.4 21.7-1.1c-.9-3.6-.8-8-1.1-11.6-.6-9.4-.5-18.7-.9-28-.2-4.1 5.4-4.8 7.1-1.4s.6 10.1.7 13.8c.3 8.6 1.9 18.3.2 26.8-.6 3-3.1 4.5-4.8 2.9h0c-.6.9-2.6.9-4.1.9h-1c-4 .3-7.8.7-11.7 1.3-7.7 1.2-15.6 1.9-23.4 2.1-15.6.4-31.2 0-46.7 1.1-3.4.2-6.8.6-10.2 1.3-1.4.4-2.9.6-4.3.7-1.5 0-2.9-.6-3-2.7zm113.5-43.8c-2 .3-3.6 2-2.8 4.1 1.1 2.7 4.4 1.6 6.7 1.4 7-.5 14.2.5 21.2-.3 1.9-.3 4.6-1.3 2.9-3.8-1.3-1.9-5.9-1.5-7.8-1.7-6.8-.5-13.6-.4-20.2.3m11.8 11.8c-2.7.2-9 0-10.2 3.2-2.1 5.5 5.9 3.6 8.4 3.2 2.8-.4 9.5.6 11-2.2 2.7-4.9-6.9-4.3-9.2-4.2m-7.1 12.1c-1.3 1.4-1.3 3.5 0 4.9 1.5 1.5 5 1.3 7.1 1.4 2.9.2 11.2 1.7 12.6-1.7 1.9-4.6-5.6-4.5-8-4.8-2.8-.3-9.2-2.1-11.7.2"/></g><g class="m"><path d="M101.5 458.29c0 5 7.7 5 7.7 0s-7.7-5-7.7 0m14.6 0c0 5.7 8.7 5.6 8.7 0s-8.7-5.7-8.7 0m-8.8 7.5c-4.2 1.2-.4 4.8 1.6 5.6 3.2 1.4 7.5 2.3 10.6.3 1.3-.8 2.3-1.8 1.4-3.3-1-1.6-2.3-.9-3.8-.7-1.7.3-3.5.1-5.2-.5-1.5-.4-3.1-1.8-4.6-1.4m77.3-7.2c0 3.3 5.1 3.3 5.1 0s-5.1-3.4-5.1 0m11.5.5c0 3.7 5.8 3.7 5.8 0s-5.8-3.7-5.8 0m-.5 8c-3.1.4-11.8 1.3-12.2 5-.7 5.8 8.8 1.1 11 .6 2.7-.5 5.4-.5 8-.3 1.5.1 3.5.3 3.4-2-.3-3.8-7.6-3.6-10.2-3.3"/></g><g class="n"><path d="M119.7 520.09c-2.2.5-5 4.4-3.5 6.7 2.4 3.8 3.6-2.1 4.6-2.6 1.9-1 3.4 2.7 5.4.7 3-3-4.6-5.4-6.5-4.8m5.2 12.8c-4.1 2.4 2.7 7.7 5 8.3 3.6 1 10.8-.8 11.6-5.2.4-1.7-.7-3.3-2.7-3-1.6.3-2.6 2.3-4.1 3-1.7 1.1-4 .8-5.4-.5-1.2-1.4-2-4.1-4.4-2.6m3 35.9c-3.7.8-7.5.3-11.2 1-3.8.7-6 2.2-9.6.7l-.5-.2c-2.7-1.2-5.6-1.5-8.5.4-1.7 1.1-6.8 5-6.2 7.3 1.4 5 7.1-2.9 8.6-3.7 2.8-1.4 4.8.5 7.7.9 3.5.6 6.3-1.2 9.5-1.9 3.8-.8 8.1-1.2 12-1.6 1.5-.2 7.4 1 7.9-.9.8-3.3-8.2-2.4-9.7-2m36.1 14.7h0c-2.8 0-5-.1-6.9-.3a13.67 13.67 0 0 1-4-.9c-1.2-.6-2-1.8-2.3-3.2l-1.3-5.9c-.4-3 0-4.7 1-5.2.4-.2.7-.2 1.1-.2h.6 0 .5.4l2.8-.6c1.3-.4 2.5-.6 3.9-.8 3.7-.5 7.7-.8 12.2-1h.1c.7 0 1.5-.1 2.4-.1 1.7-.1 3.4.2 5 .6 1.5.4 2.8 1.4 3.5 2.9 1.3 2.9-.3 8.8-1.8 11.5-1.6 2.8-4.7 3.2-7.9 3.2h-1.7 0-1.6-.4-1.5 0-4.1zm-10.6-13.5h0c.1.5.1 1.3.2 2.3h0c.2 2.5.4 5.9 1.1 6.8.7.8 3.2.8 4.7.8h0 .9c2.3.2 4.7.2 7 .3h.1c.9 0 2 .1 3 .1.5 0 1.3.1 2 .2h0c1.1.2 2.2.3 3.3.3.7 0 1.4-.1 2-.4.9-.5 2-2.3 2.6-4.9.6-2.1 1-5 .2-6.2-.7-1.2-2.6-1.7-5.6-1.7-2.6.1-5.1.4-7.7.7h0c-.9.1-1.6.3-2.2.3l-3.6.6h0a32.1 32.1 0 0 1-6.1.9c-.6.1-1.3 0-1.9-.1z"/></g><path d="M210.2 585.09h0c-4.2 0-8.5-.2-12.7-.6-2.6-.3-4.1-.8-5.3-1.8-1.3-1.1-1.9-2.7-2.2-5.1-.1-.5-.2-1.3-.3-2-.5-3.7-1.3-9.4 1.6-11.2 2.2-1.4 6.5-1.5 9.7-1.6.7 0 1.4-.1 2.1-.1h1.1c2 .1 4 .2 5.9.5 1.6.2 3.2.5 4.9.5 2.8.1 4.5.4 5.8 1.2s2.1 2.3 2.6 4.9c.1.4.2.6.4 1 .3.5.4 1 .5 1.5-.1 1.4-.3 2.7-.6 4-.2.6-.3 1.2-.4 1.7-.5 2.6-1.4 4.4-2.9 5.5-1.4 1.1-3.2 1.5-5.9 1.6h-4.3zm3.8-6.3l-5.4 1-.3.1h0l-.5.1h-.2c.6.1 1.2.1 1.7.2.6.1 1.2.2 1.8.2 1.2 0 2.3-.6 2.9-1.6h0zm-12.6-.3h0l-.3.1h0l-1.1.4h0-.1-.1l-.2.1-.4.1 2.3.3c0-.4-.1-.7-.1-1h0zm-5-2.8c-.1 0-.3 0-.4.1s-.1.2-.1.3a.9.9 0 0 0 .1.5c0 .1.1.1.2.1.3 0 .6-.3 1.2-.7h0 0c-.2 0-.3 0-.5-.1h0 0 0 0 0 0c-.1-.2-.3-.2-.5-.2zm14.1-6.9c-.1 0-.2.1-.2.1-.2.1-.3.2-.2.3h0c.2 0 .4-.1.5-.2h0 0 0 .1c0-.1-.1-.1-.2-.2zm7.5-1.3c.7 1.1 1.2 1.2 1.3 1.2s.1-.1.1-.1h0c0-.4-.5-1-1.4-1.1z" class="m"/></g><g class="l m"><path d="M1026.767 311.888h0c-3.7 0-7.4-1-10.5-2.8-3.2-1.7-5.8-4.2-7.6-7.4-1.3-2.3-1.9-4.8-1.9-7.3.1-2.9 1-5.7 2.5-8.1-1-.2-1.5-.5-1.6-1.1-.2-1.4 3.2-3.5 4-4l.3-.2c2.9-1.5 5.9-3.2 9-3.6a28.28 28.28 0 0 1 4.1-.3c3.6 0 7.2.7 10.4 2.2 3.2 1.4 6 3.9 7.7 7 1 1.8 1.6 3.8 1.7 5.9.2 2-.1 4.1-.6 6-.5 2-1.4 3.9-2.5 5.6s-2.5 3.2-4.1 4.5a18.27 18.27 0 0 1-10.9 3.6zm-2.2-30.5c-4.2 0-8.4 1.7-11.3 4.9-2.3 2.6-3.3 6-2.9 9.5.9 7 8 13 15.5 13h1c7.1-.6 12.9-6 14-13.1.5-3.1-.4-6.3-2.4-8.6-2.8-3.2-8-5.4-13.6-5.5 0-.2-.2-.2-.3-.2h0zm-5.5 10.6c0 3.2 5 3.2 5 0s-5-3.1-5 0m9.1.5c0 3.4 5.4 3.4 5.4 0s-5.4-3.5-5.4 0m-6.2 6.9c-.7 2.6 7.5 4 7.8.9.1-1.5-7.2-2.8-7.8-.9m24.2-1.6c9.5-1.2 19.3-.6 28.8-.4l7.1.2c1.5 0 4.8.7 6.1 0 5.4-2.9-5.2-4.3-6.8-4.4-11.2-.8-22.4-1-33.6-.7-2.7.1-3.3 5.4-1.6 5.3m-3.6 18.4c-3.7.3-7 2.1-10.7 2.1-3.1 0-6.1-.9-9.3-.8-3.7.2-5.7 2.5-8.8 3.3-2.5.6-4.1-1.4-6.4-2.2-2.8-1.1-5-.5-7.3 1.1-1.8 1.2-5.9 4-5.9 6.4.1 7.4 8.7-2.8 10.4-3 2.3-.2 4.9 2.4 7.4 2.6 3.2.2 5.3-1.9 8.4-2.7s6.3.2 9.4.5c3.5.4 6.5-.5 9.8-1.3 3.1-.8 6.2-.8 9.4-.1 2.3.5 7.7 3.1 8.7-.3 1.2-4.5-12.6-5.8-15.1-5.6m1 14.2c-7.5.7-15 1.4-22.5 1.5-3.2.1-15.8-1.4-14.7 2.8 1 3.5 18 1.4 21.4 1.1 3.9-.3 7.7-.7 11.4-1.2 1.4-.2 4.6 0 5.6-1.2 1.1-1.1.6-3.2-1.2-3m-49.2 30.9c-2.3 0-4.6-1.2-6-3s-2.3-4.1-2.3-6.4c-.1-3.5 1.9-7.4 7.6-7.6h.1c.5 0 .8.2 1.1.5a3.04 3.04 0 0 0 .7.5h0c.2-.1.5-.2.5-.3l.1-.1c.3-.2.5-.3.8-.4h0c2.4.2 4 .6 5.3 2.6.6 1.1 1 2.3 1.1 3.5 0 1.4-.2 2.7-.6 4-1 3-3.1 5.3-5.3 6.1-1 .5-2 .6-3.1.6zm1.7-12.8c-.3 0-.6.1-.9.3h0c-.5.3-1 .5-1.5.5-2 0-3.1 1.1-3.1 2.8.1 1.2.5 2.3 1.3 3.2.7 1 1.8 1.5 3 1.6 1 0 1.9-.5 2.5-1.2.8-.9 1.4-1.9 1.5-3.1.2-.8.5-2.3-.4-3.3-.5-.5-.6-.5-1-.6h0c-.2 0-.5-.1-.6-.1-.3 0-.5-.1-.8-.1zm29.6 11.1h0-.2c-1.9 0-3.7-.9-5-2.3-1.4-1.7-2.1-4-1.8-6.1.5-4 3-6.1 7.7-6.8.3 0 .6-.1.9-.1 1.4 0 2.8.5 3.8 1.6 1.4 1.7 2.1 3.9 1.8 6-.1 1.9-.8 3.8-2.1 5.2-1.1 1.7-3 2.6-5.1 2.5zm-1.1-9.8h0 0c-.9.6-1.3 1.9-.9 3 .2 1.1 1.1 1.8 2.2 1.9.3 0 .5-.1.8-.2.9-.5 1.5-1.4 1.8-2.4.2-.5.1-1.1-.3-1.5v.1h-.2c-.7-.1-1.4-.2-2-.4s-1.1-.3-1.4-.5h0zm44.2 9.1h0c-1.6 0-3.2-.6-4.4-1.8-1.1-1.1-1.7-2.5-1.8-4.1-.2-1.7.2-3.4 1.2-4.8 1.1-1.6 2.8-2.7 4.7-3.1-1.1-.6-1.5-2-.9-3.1.4-.7 1.1-1.3 1.9-1.4 2.7 0 5.9 6.3 6.1 7.9.4 2.1.3 4.1-.5 6.1-.7 2-2.3 3.5-4.4 3.9-.7.3-1.3.3-1.9.4zm1.9-8.9h0c-2.8.3-3.1 1.4-3.1 1.9.1.8.7 1.5 1.6 1.5.4 0 .6-.2.8-.4.6-.3.9-1.1.7-3h0z"/></g><g class="l"><path d="M1429.038 391.983c0 5.1-.3 10.4.7 15.4.3 1.5.5 4.5 2.2 5.2 1.2.6 2.7.2 3.3-1 .1-.3.2-.5.3-.7.5-1.9-.5-4.9-.6-6.8-.2-2.8-.2-5.6-.2-8.3 0-2 .6-5.2-1.7-6.3-1.6-.6-3.2.1-3.8 1.6-.2.2-.2.6-.2.9" class="n"/><path d="M1516.138 412.583c-14.7 1.4-29.8 0-44.6.5l-23.2 1-10.1.2c-1.6 0-8.9 1-4.4 4.1 2 1.4 8.4.3 10.6.3 3.4 0 6.8-.2 10.4-.4l24-1 22.9-.5c3.8 0 7.7-.3 11.4-.8.8-.1 3.6-.2 4.2-1.2.5-.8.1-2.4-1.2-2.2" class="m"/><g class="n"><path d="M1447.538 409.983h0c-2.2 0-4.3-.8-5.9-2.3-1.4-1.4-2.3-3.2-2.4-5.2-.2-1.8.4-3.6 1.4-5.1 1.4-1.7 3.4-2.8 5.7-3.2h.4c.5 0 .8.2 1.2.4.3.2.6.3 1 .4h.3c.3 0 .6 0 .9-.1s.6-.1.9-.1.5 0 .7.1c2.1.6 3.4 2.7 4.1 4.4.4 1.1.5 2.3.5 3.5-.2 2.3-1.4 4.3-3.2 5.7-1 .7-2.1 1.2-3.2 1.4-1 .1-1.7.1-2.4.1zm2.3-10.5h0c-1.9 0-5.3.5-5.9 1.9-.3.6 0 1.4.9 2.3.7.8 1.7 1.3 2.8 1.3 1.4 0 2.6-.8 3.2-2.1.3-1.1 0-2.5-1-3.4h0zm41.6-.8c-7.1 0-14.2.4-21.4.5-2.2 0-7.8-.9-7.8 2.5 0 3.7 6.2 2.3 8.4 2.3 7.1-.2 14.1-.5 21.2-1.2 1.8-.2 7.9.1 7.9-2.3 0-2.6-6.9-1.8-8.3-1.8"/></g><g class="m"><path d="M1508.438 422.683l-52.9 1.5a324.76 324.76 0 0 1-19.8.6c-1.3 0-3.9-.5-5 .3-3.2 2.2.5 4.1 2.6 4.1 14.5.8 29.2-1.2 43.7-1.6l25.4-.8c2.3-.1 4.6-.3 6.9-.5 1.4-.1 4.9.2 5.9-.6 4.7-3.2-5.2-3-6.8-3"/><path d="M1427.638 431.283c-.3 4.5-.1 9.1.5 13.6.3 1.8.4 3.8 2.4 4.2 1.9.5 2.9-1 3.2-2.6 1-3.9.1-9.5.1-13.6 0-2 0-4.2-2.5-4.7-1.7-.4-3.3.8-3.7 2.5v.6"/><path d="M1527.138 442.383l-85.6 4.1c-2.3.1-19.5-.1-13.5 5.9 1.9 1.9 6.7.6 9.1.5l10.9-.5 43.2-1.7c7.9-.5 15.8-1.2 23.7-2.1 3.8-.5 8.4-.4 11.9-1.9 1.9-.8 3.9-4.5.3-4.3"/><path d="M1510.838 419.083c-2.2 2.2-1.1 6.4-.9 9.1.3 3.7.5 7.4 1 11 .3 2.3.2 6 1.4 8.1a3.66 3.66 0 0 0 4.9 1.2c.5-.4 1-.8 1.3-1.4 1.2-2.1.6-6.4.5-8.6 0-3.2-.3-6.3-.5-9.5-.2-2.6.5-6.8-1-9.1-1.3-2.1-3.9-2.7-5.9-1.5-.4.4-.7.6-.8.7m-63 24.7h0c-.5 0-1 0-1.4-.1-2.4-.4-4.5-1.9-5.8-4-.9-1.6-.9-3.6 0-5.3.8-1.4 2.2-2.5 3.8-2.9 1.6-.5 3.3-.7 5-.7h.5.5c1.9 0 3.6.8 5 2.2 1.2 1.2 1.7 2.8 1.6 4.4-.2 2.1-1.4 3.9-3.2 4.9s-3.9 1.5-6 1.5zm-2.2-7.8a.76.76 0 0 0-.4.2c-.5.5-.5 1.4 0 1.8.5.9 1.5 1.4 2.5 1.4 2.1 0 4.2-1.5 4.3-2.7 0-.5-.2-1-1.5-1.3h-.1c-1.4.2-2.6.5-3.8 1h-.2c-.2 0-.4-.1-.5-.2 0-.1-.2-.1-.3-.2z"/><path d="M1476.938 433.083c-3.3.1-9.9-.9-12.9.7-2.9 1.6-1.6 4.5 1 5.1 1.7.5 4.6-.3 6.4-.4l7.1-.2c4-.1 8 0 12 0 4.1 0 8.3.1 12.3-.2 5.1-.4 5-4.2 0-4.8-8.4-.7-17.3-.4-25.9-.2m-8.6 43.3c0 1.8 1.6 0 1.6 0s-1.6-1.8-1.6 0m-36.9-14.8l.4 16c.1 1.7-.5 5 1.6 5.9 2.3 1 3-1.4 3.2-3.1.8-5.1 0-11-.1-16.2 0-1.7.4-4.1-1.6-5-1.3-.5-2.8.2-3.3 1.5-.1.3-.2.7-.2.9"/><path d="M1521.938 476.383h0c-.9-.1-1.7-.6-2.1-1.4-.8-1.3-.5-3.6-.1-5.8.2-1.2.4-2.3.3-3.5 0-.2 0-.5-.1-.6-.1-1.5-.2-2.9-1.5-3.4-.6-.2-1.3-.4-1.9-.3-.7 0-1.6.1-2.3.2-.6.1-1.3.1-1.7.1h-12.2l-37.5.4-18.3.6c-2.8.1-5.6.5-8.4 1-1.2.3-2.3.4-3.4.4-1.4 0-2.3-.3-2.5-.8-.3-.5 0-1.3.8-2.3 1.4-1.7 6-2.1 8.9-2.3.5 0 1-.1 1.4-.1l9.2-.5 1.4-.1c7.3-.3 14.8-.5 22-.5h2.7c4.3-.1 8.8-.1 13.7-.1l11.5.1c4.8 0 9.6.3 14.9.7 2.1.2 3.6.3 4.8.9s1.9 1.8 2.5 4c.9 3.1 1.9 6.9 1.3 10.3-.6 1.3-1.9 3-3.4 3zm-13.1 3.1c-17.8 2.1-36.1.8-54 .9-4.3 0-8.7.1-13.1.3-2.3.1-7.7-.5-9.3 1.3-3.3 3.7 2.7 4.3 4.9 4.1 4.4-.3 8.8-.5 13.2-.5 15.6-.1 31.2.6 46.8-.2 6.5-.5 13-1.4 19.3-2.7 1.4-.3 11.1-2.2 5.6-4.3-3.3-1.4-10 .6-13.4 1.1m-54.4-.5h0c-2.4.1-4.9-.9-6.6-2.7-3-3.4-1-6.8 1.4-9.8.5-.6 1.3-.9 2.1-.8.8 0 1.6.2 2.4.4l1.2.3c.3 0 .5.1.7.1 1.9.3 3 .4 4.4 2 1.4 1.5 2.1 3.7 1.8 5.8-.3 1.5-1.2 2.9-2.5 3.6-1.5.7-3.2 1.1-4.9 1.1zm.6-7.9c-.7-.1-1.4.1-1.9.5-.1.1-.2.3-.2.5.1.5.8 1 2 1 .5 0 1-.1 1.4-.2-.2-.6-.5-1.3-.9-1.7 0-.1-.2-.1-.4-.1z"/><path d="M1473.938 471.983c0 4 17.1 2.3 20.2 2.3 2.5 0 17.9 1.4 16.8-2.7-.9-3.3-16.1-1.7-19.3-1.7-2.8 0-17.7-1.9-17.7 2.1"/></g></g><g class="l m"><path d="M639.812 378.098h0c-1.8 0-3.5-.3-5.2-.8-1.8-.5-3.5-1.4-5.1-2.3-3.8-2.3-6.8-5.5-9-9.4-2.2-3.8-3.2-8.2-2.8-12.6-.5.4-1 .5-1.5.5s-.9-.3-1.2-.7c-.5-1.4-.5-2.8.1-4.1 1-1.6 2.1-3.2 3.3-4.6.2-.3.5-.5.6-.8 1.7-2.3 3.9-4 6.4-5.2s5.3-1.8 8.2-1.7h.4c4.5 0 8.9.9 13.1 2.5 2.1.8 4 2 5.8 3.4 3.5 2.8 5.9 6.8 6.5 11.3.4 2.3.3 4.5-.1 6.7-.7 4.4-2.8 8.6-5.9 11.8-3.6 3.7-8.5 5.9-13.6 6zm-6-36.6c-4.1 0-6.9 1.3-8.8 4-2.3 3.3-3.3 7.4-2.8 11.4 1 7.5 8.6 16.5 16.7 16.9h.7c8.7 0 15.3-8.9 15.4-16.8.1-11.1-10.9-14.3-17.4-15.2l-3.8-.3z"/><path d="M652.212 334.098c-4 3.1-7.6 6.6-10.6 10.6-3 3.8-4.9 8.6-8.4 11.8-1.8-2-3.9-7.2-7.4-5.1-3 1.7-1.1 4.7.4 6.7 3.7 5 7.8 7 12.6 2.1 4.3-4.5 6.8-10.5 10.8-15.3 1.8-2.1 4.5-4.1 5.9-6.5 1.3-2.2-.3-6.5-3.3-4.3"/></g><g class="l"><g class="m"><path d="M1241.33 125.996c-2-.9-1.9-1.9-1.2-2.7-.5-1.1-.5-2.9-.5-3.7-.5-3.5-.7-7.1-.7-10.6 0-7 0-14.3 2-21.1a1.83 1.83 0 0 1-1.3-1.5c0-3.5 10.8-3.4 16.3-3.3h2.6c4-.1 7.8-.1 11.8-.1.9 0 1.8-.1 2.8-.1 2-.2 4-.2 5.9.2 5 1.2 4.7 9.8 4.8 14 .2 7.6 0 15.2-.5 22.8-.2 2.6-2.1 5.9-4.2 2.3-1.2-2-.6-6.6-.6-8.8 0-7.7 1.2-15.8.1-23.5-.4-2.5-.3-2.7-2.9-2.6-2.1 0-4.1.1-6.1.2a259.66 259.66 0 0 0-12.4.3c-1.6.1-7.3 1.1-11.7 1.1v.1c.1 3-1.4 6.7-1.6 9.8-.5 7.6.2 15.3-.5 22.9 0 .3 0 .5-.1.7h.4c3.3-.2 6.7-.1 10-.2 2.1-.1 4.2-.1 6.4 0 4.8.1 9.5-.1 14.1-.5 1.4-.2 1.9 1.6 1.3 2.5-.7 1-2.9 1-4 1.1-3 .4-6 .6-9 .7-3.2.2-6.3.3-9.5.4-1.8.1-5.2.5-7.9.5-1.6-.3-2.8-.5-3.8-.9zm61.1-.9c0-.3.1-.6.3-.8-.6-.6-1-1.4-1.3-2.3-1.1-3.4-1.2-7.2-1.3-10.8-.2-7.7-.1-15.4-.1-23.1-.7-.9-.3-2 .6-2.8 2.3-2 9.1-1.5 12.1-1.6 4.3-.3 8.6-.3 12.9-.3 4.5 0 9.1.1 13.6.2 1.7.1 13.4.4 8.2 3.2l-1 .5c.2 1.1.3 2.2.2 3.2l-.5 12.2-.5 13.7c-.1 2.4.7 8-1.2 9.7a2.72 2.72 0 0 1-1.6.8c-.5 0-.9-.3-1.2-.6-3.2 1-9.6.8-13.7.6-1.6-.1-2.8-.2-3.3-.1-1.8 0-7.8.6-13.1.6-4.9.1-9.1-.4-9.1-2.3zm18.2-37.7c-4.8 0-9.5.3-14.2.8-.3 0-.5.1-.9.2.7 2.9-.2 7.7-.2 10.5 0 7.7.3 15.5.5 23.2v.7c3.7-.8 9.7-.6 13.6-.5a50.41 50.41 0 0 0 3.4.1c3.8 0 7.7 0 11.4.2h1.9c1.5-.1 3 0 4.5.1v-.5c-.2-4.1 0-8.3.2-12.3.1-4.1.4-8.3.5-12.4.1-2.2-.5-6.6.1-9.6-2.8-.1-5.7-.4-7.6-.4h-7c-2.2-.2-4.2-.2-6.2-.1z"/></g><g class="n"><path d="M1258.73 125.796c-2.8 1.6-1.3 8.2-.4 10.5 1.6 3.8 4.9 6.7 8.4 8.6 7.1 4 17.3 2.9 22.7 9.7.1.1 1.9 1.9 2.3-.5.4-2-3.2-5-4.5-5.9-3.8-2.8-8.7-3.7-13.1-5-4.7-1.4-9.9-4.2-11.9-9.1-.5-1.8.8-10.8-3.5-8.3m64.4 3.1c-2.6.7-.9 4.2-.9 6 0 2.3-.7 4.5-2.1 6.3-3.5 4.5-10.3 5.1-15.3 6.5-3.7.9-12.5 3-12.9 7.9-.4 5.6 7.4-1.2 8.1-1.5 7.3-2.7 16.7-3.2 22.3-9.1 2.3-2.4 3.7-5.7 3.9-9 .2-1.8.2-8-3.1-7.1"/></g><g class="m"><path d="M1291.13 196.196h0c-2.5 0-5-.5-7.5-1.3-2.4-.8-4.8-2.1-6.8-3.6-2.1-1.5-3.7-3.4-5-5.6-1.3-2.3-2-4.7-2-7.3 0-2.4.5-4.9 1.6-7s2.6-4 4.3-5.5c3.7-3.1 8.1-5.3 12.8-6.5a18.16 18.16 0 0 1 4.6-.6c4.3 0 8.5 1.6 11.6 4.6 3.2 3.1 5.3 7.1 5.8 11.5.6 5.1-.9 10.4-4.2 14.3-1.7 2.1-3.9 3.7-6.3 4.9-2.5 1.3-5.3 1.9-8.1 2-.3 0-.6.1-.8.1zm-14.8-24.3c-2.2 3.8-2.3 7.6-.4 11 2.8 4.8 9.3 8.1 15.8 8.1 2.2 0 4.3-.5 6.4-1.3 6.6-3.1 8.4-10.2 7.2-15.6-1-4.7-4.6-9.6-11.6-9.7.5.5.6 1.2.6 1.9-.1.4-.4.7-.6.9-.3.2-.5.3-.8.3-.6 0-1.1-.6-1.4-1.2a3.04 3.04 0 0 0-1.3-1.2c-.2 0-.4-.1-.5-.1-1.3 0-2.9 1-4.1 1.9a15.3 15.3 0 0 0-1.8 1.8c-1.7 1.9-4 4.4-5.8 4.4-.6.1-1.3-.5-1.7-1.2zm7.6 3.1c0 2.3 3.8 2.3 3.8 0-.1-2.4-3.8-2.5-3.8 0m6.6-.5c0 2.9 4.6 2.9 4.6 0s-4.6-3-4.6 0m-4.7 6.8c-3.8 2.3 6.9 6.6 7.4 2.1.2-1.9-1.7-1.4-3-1.5-1.1-.2-3.3-1.3-4.4-.6"/></g><g class="n"><path d="M1284.23 196.896c.2 5.7.1 11.3 1.2 16.8.2 1.1.4 4.9 1.2 5.7 2.1 1.9 2.1-1.8 2.2-3.2.3-5-.3-10.3-.4-15.4 0-1.1.3-3.3-.3-4.4-.8-1.6-4-2.2-3.9.5m-4-4.6c-8.2 9.3-19.5 8.6-31 9.4-6 .5-12.2 1.3-17 5.2-2.3 1.8-4.1 4.1-5.5 6.7-.5 1.2-3.2 7.7.8 6.1 1.4-.5 2.9-4.9 3.8-6.1 1.7-2.4 4.1-4.4 6.8-5.8 5.2-2.5 11.5-2.4 17.3-2.8 5.9-.4 12.3-.6 17.8-3.2 2.6-1.2 5-2.8 7.1-4.7.7-.7 2.3-1.9 2.4-3 .2-1.2-1-3.5-2.5-1.8"/></g><g class="m"><path d="M1238.73 220.696c-7.7.3-15.4.5-23.1 1.1-1.6.1-6.8-.2-5.5 3.1 1.1 2.6 7.5.9 9.6.7 8-.5 16.1-.6 24.1-1.4 1.8-.2 9.9-.1 6.6-3.3-1.7-1.6-9.5-.3-11.7-.2m-33.6 3.7c-2.4 3.2-1.4 11-1.2 14.9.2 3.7-.5 10.5 4.3 11.1-1.5-.2 1.2.1 1.6.1 1 .1 2 .1 3 .1 2.3 0 4.6 0 6.8-.1l15.5-.5c2.2-.1 14 0 14.4-2.3.6-2.9-10.7-1.3-12.7-1.2-5 .3-9.8.3-14.8.4-2.4 0-4.9.1-7.3 0-1 0-5 .4-5.6-.3-.5-.5-.1-5.9-.1-6.7l.1-7.9c.1-1.8 1-5.1.3-6.8a2.75 2.75 0 0 0-3.6-1.4c-.3.2-.5.4-.7.6"/><path d="M1244.93 224.596c.2 5.9.2 11.8 1.5 17.6.5 1.9 1.1 5.9 3.1 6.8 2 1 3.8-.5 3.9-2.4.2-2.5-1.2-5.8-1.4-8.4-.4-3-.5-6-.6-9-.1-2.3.6-5.7-1.5-7.1-1.4-1-3.3-.5-4.3.9-.6.4-.7.9-.7 1.6m20.7 23.6c-1.8-.1-3.8-.7-3.3-3.1.5-2.1 2.5-2.2 4.2-2.3 5.2-.5 10.4-.7 15.7-.7l33-.1c.5 0 .9.2 1.3.5-.5-.7-.3-1.7-.5-2.7-.3-2.7-.5-5.4-1-8.1-.5-2.2-.7-5.9-2.7-7.3-1.7-1.2-5-1.1-7.7-1.1h-2c-7.1-.1-14.2.3-21.2 1-3.2.3-6.5.5-9.6 1.1-1.8.4-6.9 2.9-8.4 1.4-3.4-3.9 11.5-5.4 13.6-5.7 7.2-.7 14.4-1.3 21.7-1.4 4.9 0 13.3-.5 16.9 3.6 2.2 2.4 2.9 6.4 3.8 9.4.6 2.3 2.4 6.5 1.2 8.9-.5 1.1-1.4 2-2.9 1.6-.3-.1-.5-.2-.8-.4.5.5.7 1.4.5 2.2-.8 1.9-3.9 1.5-5.5 1.6-5.5.5-11.1.8-16.6.8h-7.9c-2.7 0-5.4-.1-8.1 0-4.1 0-8.3.8-12.2.8-.7.1-1.2.1-1.5 0z"/></g><path d="M1357.43 216.596h0c-1.4 0-2.7-2.3-3.6-3.8l-.8-1.2c-1.5-2.2-3.7-3.7-6.1-4.6-4.7-1.6-9.9-2.2-14.9-2.8l-5.1-.6c-.9-.1-1.8-.3-2.7-.4-4.5-.5-9.6-1.3-13.5-3.4-1.7-1-7-5.9-7.1-9.1 0-.9.5-1.7 1.3-2.2.4-.3.9-.4 1.4-.5 1.3 0 2 1.4 2.6 2.6.2.4.4.8.6 1.1 1.4 2.3 3.8 4.1 6.5 4.7a88.92 88.92 0 0 0 12.5 2.4c1.1.2 2.2.4 3.3.5.9.2 1.8.3 2.7.5 5 .7 10.1 1.5 14.6 3.5 2.1 1.3 4 2.8 5.6 4.6 1.5 1.6 4.1 4.6 4.3 6.7.1.7-.3 1.4-.9 1.6-.2.4-.5.4-.7.4z" class="n"/><path d="M1331.83 247.396c-1.9-.2-3.9-.8-3.4-3.2-1.4-2.5-1.9-7.4-2.1-8.3-.5-4.1-.6-8.2-.5-12.3 0-1.5 1.3-2.7 2.8-2.6.5 0 1.1.2 1.5.5 2.3-.9 6-1.1 8.1-1.3 3.3-.4 6.8-.5 10.1-.6 7.8-.5 15.8-1.4 23.6-1.5 2.3-.1 5.5-.3 7.4 1.4 2.2 2 2.6 6.9 3.2 9.5a67.24 67.24 0 0 1 1.8 8.7c.2 1 .2 2 .2 3 1 .2 1.6 1.2 1.4 2.2-.2 1.9-2.9 2.2-4.4 2.5-5.2 1-10.8.8-16 .9-8.6.3-17.6 1.4-26.3 1.4-2.4.1-4.9 0-7.4-.3zm1-5.5h.7l16.7-.5 17-.5c2 0 4 0 5.9.1 2.6.1 5.1.2 7.7.1-1-2.5-.8-6.6-1.4-9.2s-.7-5.8-1.8-8.2c-1.2-2.8-2.3-2.2-5.3-1.9-3.2.2-6.4.5-9.5.8l-21 1.4c-3.6.3-7.1 1.3-10.6 1.7-.1 1.3-.3 2.5-.2 3.4.1 2.7.4 5.4.5 8.1.1 1.1.5 3 .6 4.7h.7 0z" class="m"/></g><g transform="translate(178 613)"><g transform="translate(41 181)"><path d="M14.6-60.9c21.5.0 38.9 4.9 38.9 11s-17.4 11-38.9 11-38.9-4.9-38.9-11 17.4-11 38.9-11z" opacity=".2" fill="#bbcff2" class="r"/><g transform="translate(2 11)"><linearGradient id="A" gradientUnits="userSpaceOnUse" x1="1097.729" y1="171.041" x2="1097.34" y2="170.771" gradientTransform="matrix(144 0 0 88 -158010.9688 -15117.9238)"><stop offset="0" stop-color="#cee0fb"/><stop offset="1" stop-color="#e4edfb"/></linearGradient><path d="M48.8-104.7a28.14 28.14 0 0 1 3.8 14.1c0 18-17.4 32.7-38.9 32.7s-38.9-14.6-38.9-32.7c0-5.2 1.5-10.4 4.3-14.9 17.2 2.8 51.5 2.6 69.7.8z" fill="url(#A)"/></g><g transform="translate(8)"><linearGradient id="B" gradientUnits="userSpaceOnUse" x1="7.889" y1="-100.93" x2="7.889" y2="-84.187"><stop offset="0" stop-color="#99bae9"/><stop offset="1" stop-color="#bcd0f2"/></linearGradient><path d="M7.9-100.9c19.6 0 35.4 3.7 35.4 8.4 0 4.6-15.8 8.4-35.4 8.4s-35.4-3.8-35.4-8.4c0-4.7 15.9-8.4 35.4-8.4z" fill="url(#B)"/></g></g><g transform="translate(47)"><linearGradient id="C" gradientUnits="userSpaceOnUse" x1="1069.071" y1="178.135" x2="1069.311" y2="178.648" gradientTransform="matrix(76.9467 0 0 183 -82272.8359 -32613.0664)"><stop offset="0" stop-color="#b1ffbe"/><stop offset=".444" stop-color="#5cdb8e"/><stop offset="1" stop-color="#149654"/></linearGradient><path d="M7 81.2C5 67.8-.3 48.5-16.3 27.7c-9.4-12.3-9.5-42.1-10.8-45.4C-19.7-15.1-6.4-8.6 7 9.9c14 19.3 5.1 58.7 0 71.3z" fill="url(#C)"/><defs><path id="D" d="M7 81.2C5 67.8-.3 48.5-16.3 27.7c-9.4-12.3-9.5-42.1-10.8-45.4C-19.7-15.1-6.4-8.6 7 9.9c14 19.3 5.1 58.7 0 71.3z"/><path id="E" d="M1136.4 339.3c0 1.2.9 2.2 2.2 2.3 1.2.1 2.3-.8 2.3-2s-.9-2.2-2.2-2.3c-1.2-.1-2.2.8-2.3 2z"/><path id="F" d="M899.4 475.8c0 .3-7.8.5-17.4.5s-17.4-.2-17.4-.5 7.8-.5 17.4-.5 17.4.2 17.4.5z"/></defs><clipPath id="G"><use xlink:href="#D"/></clipPath><g clip-path="url(#G)" class="r v w x"><path d="M6.4 81.2c1.5-32.5-2.6-53-15.3-72.4" class="l"/></g></g><g transform="translate(0 89)"><linearGradient id="H" gradientUnits="userSpaceOnUse" x1="20.558" y1="-61.449" x2="27.528" y2="1.418"><stop offset="0" stop-color="#b1ffbe"/><stop offset=".444" stop-color="#5cdb8e"/><stop offset="1" stop-color="#149654"/></linearGradient><path d="M54 5.9c-6-9.6-16.5-22.5-35.7-33C7-33.3-3-56-5.2-58.1c6.5-.5 18.8.0 35.2 9.6C47.3-38.4 53.7-5.3 54 5.9z" fill="url(#H)"/><defs><path id="I" d="M54 5.9c-6-9.6-16.5-22.5-35.7-33C7-33.3-3-56-5.2-58.1c6.5-.5 18.8.0 35.2 9.6C47.3-38.4 53.7-5.3 54 5.9z"/></defs><clipPath id="J"><use xlink:href="#I"/></clipPath><g clip-path="url(#J)" class="r v w x"><path d="M53.6 6.1c-9.8-25.3-19.8-39.5-36-50.1" class="l"/></g></g><g transform="translate(115 78)"><linearGradient id="K" gradientUnits="userSpaceOnUse" x1="801.523" y1="175.55" x2="801.763" y2="176.063" gradientTransform="matrix(94.2947 0 0 132.014 -75620.9688 -23223.2363)"><stop offset="0" stop-color="#b1ffbe"/><stop offset=".444" stop-color="#5cdb8e"/><stop offset="1" stop-color="#149654"/></linearGradient><path d="M-56.7 18.2C-52 7.9-43.1-6.3-25.4-19.2-15-26.9-7.9-50.8-6-53.1c-6.5.3-18.7 2.4-33.9 14.1-15.8 12.2-18 46-16.8 57.2z" fill="url(#K)"/><defs><path id="L" d="M-56.7 18.2C-52 7.9-43.1-6.3-25.4-19.2-15-26.9-7.9-50.8-6-53.1c-6.5.3-18.7 2.4-33.9 14.1-15.8 12.2-18 46-16.8 57.2z"/></defs><clipPath id="M"><use xlink:href="#L"/></clipPath><g clip-path="url(#M)" class="r v w x"><path d="M-58.1 18.1c6.5-26.4 14.6-42 29.4-54.5" class="l"/></g></g></g><circle transform="matrix(.9086 -.4177 .4177 .9086 51.1493 477.2177)" cx="1115.8" cy="121.8" r="60" class="s"/><path d="M1143 123.6c0 .1-.8.1-2.1.2l-5.8.2-19.6.2h-.5v-.5-3.9l.2-22.3.2-6.7.2-2.5.2 2.5.2 6.7.2 22.3v3.9l-.5-.5 19.6.2 5.8.2c1.1-.1 1.9-.1 1.9 0zm-27.4-52c.3 0 .5 2.3.5 5 0 2.8-.2 5-.5 5s-.5-2.3-.5-5 .2-5 .5-5zm27.3 8.1c.2.2-1.2 1.9-3.1 3.9-1.9 1.9-3.7 3.3-3.9 3.1s1.2-1.9 3.1-3.9c2-1.9 3.7-3.3 3.9-3.1zm16 17.5c.1.3-1.7 1.5-4.1 2.9-2.3 1.4-4.2 2.5-4.4 2.3s1.5-1.7 3.9-3.2 4.5-2.3 4.6-2zm9.4 25.9c0 .3-3.1.5-6.9.5s-6.9-.2-6.9-.5 3.1-.5 6.9-.5 6.9.2 6.9.5zm-95.3-.9c0 .3-2.9.5-6.5.5s-6.5-.2-6.5-.5 2.9-.5 6.5-.5c3.6-.1 6.5.2 6.5.5zm6.7 19.3c.2.2-2 2.3-4.8 4.6-2.9 2.3-5.3 4-5.5 3.7-.2-.2 2-2.3 4.8-4.6 2.9-2.3 5.4-4 5.5-3.7zm16.7 14.9c.2.2-1.3 2.7-3.2 5.9l-3.7 5.6c-.3-.1.8-2.9 2.8-6.1 1.9-3.3 3.8-5.6 4.1-5.4zm19.2 19.2c-.3 0-.5-3.1-.5-6.9s.2-6.9.5-6.9.5 3.1.5 6.9-.2 6.9-.5 6.9zm29.6-9.1c-.1.2-2.9-1.3-5.8-3.8s-4.7-5-4.5-5.2 2.4 1.9 5.2 4.4c2.9 2.5 5.3 4.3 5.1 4.6zm13.9-15c-.2.2-2.3-1.5-4.6-3.9-2.4-2.4-4.1-4.4-3.9-4.6s2.3 1.5 4.6 3.9c2.4 2.3 4.1 4.4 3.9 4.6zm-80-47.8c-.2.2-2-1.3-4.1-3.4s-3.6-3.9-3.4-4.1 2 1.3 4.1 3.4c2.1 2 3.6 3.9 3.4 4.1zm17.2-18.1c-.2.2-2-1.3-4-3.3s-3.5-3.8-3.3-4 2 1.3 4 3.3 3.5 3.8 3.3 4z" fill="#fafafa"/><path d="M1298.8 827.2c0 .3-192.5.5-429.8.5-237.4 0-429.9-.2-429.9-.5s192.4-.5 429.9-.5l429.8.5z" class="k"/><g class="y"><path d="M1205.731 801.632h-13.8v-165.3h13.8z"/><path d="M1101.3 643.9h197.3 0c0-11.8-9.6-21.4-21.4-21.4h-154.5c-11.9-.1-21.4 9.5-21.4 21.4h0z"/><path d="M1185.5 644.3c0 .3 5.4.5 12.1.5s12.1-.2 12.1-.5-5.4-.5-12.1-.5-12.1.2-12.1.5zm-47 172.3h2c0-32.4 26.3-58.7 58.7-58.7s58.7 26.3 58.7 58.7h2c0-33.4-27.2-60.7-60.7-60.7-33.5.1-60.7 27.3-60.7 60.7z"/><path d="M1249.8 819.6c0 5 4.1 9.1 9.1 9.1s9.1-4.1 9.1-9.1-4.1-9.1-9.1-9.1c-5.1.1-9.1 4.1-9.1 9.1zm-119.9-1.2c0 5 4.1 9.1 9.1 9.1s9.1-4.1 9.1-9.1-4.1-9.1-9.1-9.1-9.1 4.1-9.1 9.1zm9.2-16.7c0 .3 26.4.5 58.9.5l58.9-.5c0-.3-26.4-.5-58.9-.5l-58.9.5zm165.3-329v121.7c0 16-12.9 28.9-28.9 28.9h-93.8l12.7-150.6c0-7.1 5.8-12.9 12.9-12.9h84.2c7.1.1 12.9 5.8 12.9 12.9z"/></g><g class="k"><path d="M1271.2 622.4s.1-.1.2-.4l.7-1 2.6-3.9c2.1-3.4 4.9-8.6 7-15.5 1-3.4 1.9-7.3 2.3-11.5.5-4.2.4-8.7.4-13.5v-31.1l.1-56.5.2-17.1c0-2 .1-3.5.1-4.7 0-1.1.1-1.6.1-1.6s.1.6.1 1.6c0 1.2.1 2.7.1 4.7l.2 17.1.1 56.5v31.1c0 4.8.1 9.3-.5 13.6-.5 4.3-1.4 8.2-2.5 11.6a62.79 62.79 0 0 1-7.3 15.5c-1.1 1.7-2.1 3-2.7 3.8-.8.9-1.2 1.4-1.2 1.3z"/><path d="M1220.2 622.5c0-.1 1.1-.1 3-.2l8.1-.1h26.8l14.8.2c4.5.1 8.7.3 12 1.3 3.4.9 5.8 2.5 7.2 3.8.7.6 1.3 1.2 1.6 1.6s.5.6.5.6c-.1.1-.8-.8-2.3-1.9-1.5-1.2-3.9-2.6-7.2-3.4-3.3-.9-7.3-1-11.9-1.1-4.6 0-9.5-.1-14.8-.1l-26.8-.3-8.1-.2c-1.9-.1-2.9-.1-2.9-.2zm-86.4-278.6c-2.8 8.5-5.6 17.2-5.4 26.2.1 4.1.8 8.6-1.3 12.2-1.4 2.5-3.9 4.2-5.9 6.3-4.9 5.2-6.2 13.4-3.3 19.9 1 2.3 2.6 4.3 4.7 5.6 2.4 1.5 5.4 1.8 8.3 1.9 9.5.6 19.1.1 28.5-1.3 4.5-.7 9.4-1.8 12.1-5.4 2.5-3.2 2.7-7.6 2.5-11.7-.6-15.4-4.4-30.7-11.2-44.6"/><path d="M1197.6 334.7c4.4-1.4 9.5 2.7 9.1 7.2-.3 4.6-6 7.8-10.1 5.8 4.6-.8 9 2.7 11.1 6.8s2.6 8.9 3.7 13.4 3.1 9.2 7 11.6c3.8 2.3 9.1 2.4 11.6 6.1 2.5 3.8.3 9.1 1.4 13.5s5.1 7.4 8.7 10.2 7.3 6.5 7.1 11.1c-.2 3.7-2.9 6.8-6.2 8.4s-7.1 1.9-10.7 2.1c-18.1.8-36.3-1.5-53.5-6.9-2.7-.8-5.6-1.9-7.4-4.1-2.7-3.4-2.1-8.3-1.3-12.6 2.5-13.6 5-27.3 9.5-40.4s11-25.7 20.5-35.7"/></g><path d="M1224.6 466h21.3l-7.6-38c-5.6-31.1-49.1-33.2-49.1-33.2l-34.2-.6s-25.3-3.4-41 14.2l-9.9 11.1-37.1 38.8-3.9-48.7-31.8 5 4.4 61.1c1 9.8 7.4 18.7 16.8 21.7 6.9 2.2 13.9.3 20.8-3.2 18.5-9.2 53.2-38.6 55.8-40.8-1.6 3.3-4.8 10.7-4.8 17.8 0 10.1 10.4 17.7 10.4 17.7l3.2 30.8-10.7 49.7 111.6-4.5c-2.2-18-7.9-33.5-16.5-46.9l2.3-52zm-95.2-12.7c-.1-.1-.2-.3-.4-.8l1.2-.8s-.3.5-.8 1.6z" fill="#ffb339"/><path d="M1174.7 552.2c-6.2 4.1-13.8 8.9-18.1 11-7.9 3.8-8.3 3.1-8.6 2.1-.8-2.7 13.7-7.2 9.9-8-3.7-.8-17 7.5-17.8 4.7-1-3.7 14.3-8.1 15.5-8.6s.6-2.3-.5-1.8c-1.6.7-18.6 7.6-19.6 4-.5-2 3.2-2.6 3.2-2.6s16.4-5.3 15.9-7-10.3 1.1-13.5 2.2c-3.2 1.2-5.1.1-4.4-1.7.4-1.2 10.2-5 13.4-6.1s12.1-3.9 6.5-6-9.1-5.8-9.4-7.5c-.3-1.6 2-2.5 3.3-1.2 1.1 1.1 3.4 2.3 5.1 3.2 1.5.7 3 1.2 4.6 1.4 1.4.2 2.6.3 3.7.3l11.9.9 6 15.7-7.1 5z" class="q"/><path d="M1226.7 409s9.7 6.8 14 21c2.6 8.6 10.2 37.8 15.8 59.5 3.6 14.2-4.3 28.7-18.2 33.3l-62.8 33.9-10.3-26.6 55.1-36.2-13.3-49.3c-2.2-7.5-3.1-15.1-.4-22.5 2.8-7.4 8.5-14.6 20.1-13.1z" fill="#ffb339"/><path d="M1033.5 416.4l-3.8-12.2c-1.8-8.7 5.1-10.1 6.3-11.4 3.6-4 6.2-5 6.2-5l-.6-3.5s-2.1-9-2-11.5c.1-2.1 3.8-2.2 4.4-.2 1.2 4.6 3.4 12.4 4.6 15.3 1.5 3.8 4.9 13.7 8.5 7.6 3.6-6.2 3.2-9.8 3.8-11.7.6-2 5.1-2.4 4.2 1.8-.4 1.7-.6 4.9-1.7 9.1-.5 1.9-1.5 4.2-2 6-.6 2.2-.9 10.3-1.2 11.9l-26.7 3.8z" class="q"/><g class="u"><path d="M1035.5 395.1c.2 0 .3 1.4 1 3.6.3 1.1.8 2.4 1.4 3.7.3.7.7 1.5.8 2.4s-.3 2.2-1.4 2.6-2.2-.1-2.9-.6-1.3-1.2-1.7-1.9c-.9-1.4-1.3-2.8-1.5-3.9-.4-2.3-.4-3.8-.2-3.8s.4 1.4 1 3.6c.3 1.1.8 2.4 1.6 3.5.4.6.9 1.2 1.5 1.6s1.4.7 1.9.4c.6-.2.9-.9.8-1.6 0-.7-.4-1.4-.7-2.1-.6-1.4-1-2.8-1.2-3.9-.6-2.1-.5-3.6-.4-3.6z"/><path d="M1041 391.1c.1 0 .8 1.7 1.8 4.6l1.7 5.1c.3 1 .7 1.9.9 3.1.1.6.1 1.3-.1 1.9-.2.7-.8 1.2-1.4 1.5-1.2.7-2.7.5-3.8-.2-1-.7-1.7-1.6-2.2-2.6-.9-2-1.2-3.7-1.6-5.2l-1.1-4.8c.1 0 .8 1.7 1.8 4.6.5 1.4 1 3.3 1.8 5 .4.9 1 1.6 1.9 2.2.8.5 1.9.6 2.7.1.9-.5 1.2-1.4.9-2.4-.2-1-.6-2-.8-3l-1.5-5.2-1-4.7z"/></g><path d="M1062.3 469.7c-.3-.1.6-2.8 2-6s2.7-5.7 2.9-5.6c.3.1-.6 2.8-2 6-1.3 3.2-2.6 5.7-2.9 5.6z" class="k"/><path d="M1112.3 462.3c0 .1-2.2-.4-5.6-1.3l-6-1.7c-2.2-.7-4.7-1.5-7.2-2.9-2.4-1.4-4.4-3.2-5.7-5.3s-1.7-4.4-1.7-6.1l-.1-4.2c-.1-1-.3-1.5-.2-1.5s.4.5.6 1.4c.3 1 .4 2.5.5 4.2.1 1.8.5 3.8 1.8 5.7 1.2 1.9 3.1 3.6 5.4 4.9s4.7 2.1 6.9 2.9l5.9 1.9 5.4 2zm93.3 77.3c-.2 0 0-1.8-.5-4.6s-2-6.4-4.4-10l-3.6-5s-2.1-2.9-3.2-3.8c-1-.9-2.1-1.2-2.9-1.3-.8 0-1.2.1-1.2 0 0 0 .4-.4 1.2-.5s2.1.2 3.3 1.1 2.2 2.3 3.4 3.8 2.5 3.1 3.7 5c2.5 3.7 3.9 7.5 4.3 10.5.5 3 0 4.8-.1 4.8zm34.2-108.3s-.5-.1-1.5-.4l-4.4-1.4c-3.8-1.1-9.4-3-16.5-2.9-3.5.1-7.4.8-11.1 2.6-3.8 1.8-7.4 4.5-11 7.5s-7.3 6.4-11.7 9.3c-4.3 2.8-9.4 5.2-15.1 5.4-2.8.1-5.6-.5-8.1-1.6s-4.6-2.9-6.4-4.8c-3.6-3.8-6.1-8.2-9-11.9-5.6-7.6-13.6-11.6-20.4-13.1-7-1.5-12.8-.7-16.6.2-3.8 1-5.8 2.1-5.9 2 0 0 1.9-1.2 5.7-2.4 3.8-1.1 9.8-2 16.9-.6 3.5.7 7.3 2.1 11 4.2s7.2 5.2 10.1 9 5.5 8.1 9 11.8c3.4 3.8 8.3 6.3 13.7 6.1 5.3-.3 10.3-2.5 14.5-5.3 4.3-2.8 7.9-6.2 11.6-9.1 3.7-3 7.3-5.7 11.2-7.5s7.9-2.6 11.5-2.6c7.3 0 12.9 2 16.6 3.2l4.3 1.6c1.1.5 1.6.7 1.6.7zm-24.8 52.2c0 .1-1.2-.6-3.6-.8s-5.8.5-9.7 2.2-8.4 4.4-13.9 6.1c-5.5 1.8-11.8 2.8-18.4 2.7s-12.9-1.4-18.3-3.5c-5.4-2-9.9-4.6-13.4-7.1-3.5-2.6-6-5-7.7-6.8-.8-.9-1.4-1.6-1.8-2.1s-.6-.8-.6-.8c.1-.1.9.9 2.7 2.6 1.7 1.7 4.3 4 7.8 6.4s8 4.9 13.3 6.8 11.4 3.2 17.9 3.3 12.7-.9 18.1-2.5 9.8-4.2 13.9-5.8c4-1.7 7.6-2.3 10-2 2.5.4 3.7 1.3 3.7 1.3zm37.7-8.4c.1 0-.1.6-.5 1.5s-1.1 2.2-2.2 3.7c-2.1 2.9-6.3 6.4-11.8 7.6s-10.6.3-14.1-.3c-3.5-.7-5.7-1.4-5.6-1.5 0-.2 2.2.2 5.8.8 3.5.5 8.5 1.2 13.8.1s9.3-4.4 11.5-7c2.1-2.9 2.9-5 3.1-4.9z" class="s"/><g class="k"><path d="M1206 440.4l.3 1 .7 2.8 2.6 10.7 9.9 38.1.1.3-.3.2-46.4 32-7.4 5.1.2-.6 10.4 26.2-.7-.3c19.3-9.5 35.5-18.2 46.9-24.5l13.3-7.4c1.5-.8 2.7-1.5 3.6-2 .8-.4 1.2-.7 1.3-.6 0 0-.4.3-1.2.8-.9.5-2 1.2-3.5 2.1-3 1.8-7.5 4.4-13.2 7.6-11.3 6.4-27.5 15.2-46.8 24.8l-.5.2-.2-.5-10.5-26.2-.2-.4.3-.2 7.4-5.1 46.5-31.9-.2.5-9.5-38.2c-1.1-4.6-1.9-8.3-2.4-10.8a35.73 35.73 0 0 0-.6-2.9c.1-.4 0-.8.1-.8z"/><path d="M1234.2 497.8c-.2.2-3-2.1-7.3-3.4-2.1-.7-4.1-1-5.5-1.1s-2.3 0-2.4-.1c0-.1.9-.5 2.4-.6s3.6.1 5.8.8c4.5 1.4 7.2 4.2 7 4.4z"/></g><path d="M1001.4 712.7l8.3-17.1 32.2 15.3L1030 736l-2.1-.8c-9.1-3.7-46.1-19.5-51.1-24.1-5.6-5.2 24.6 1.6 24.6 1.6z" fill="#666"/><g class="l o"><path d="M1018.5 730.2a11.84 11.84 0 0 1 7.4-4.9c2.9-.7 6-.3 8.6 1.2l-4.3 9-11.7-5.3z"/></g><g class="p o"><path d="M986.4 709.9s-10.9-1.8-10.4.4c.4 2.1 37.2 19.5 54.1 25.8l.3-.7-43-19.9c-.1-.1.8-4.7-1-5.6z"/></g><g class="k"><path d="M1030.8 735.5s-.2-.1-.6-.2l-1.6-.7-6-2.5-19.5-8.8-19.2-9.5-5.7-3-1.5-.8s-.5-.3-.5-.3.2.1.6.2c.5.2 1 .5 1.6.8l5.8 2.9 19.2 9.3c7.5 3.6 14.4 6.7 19.4 8.9l5.9 2.6c.6.3 1.1.5 1.6.7.3.3.5.4.5.4z"/><path d="M987.1 715.9c-.1 0 .4-1.5.2-3.3s-1-3.1-.9-3.2 1.2 1.2 1.4 3.1c.1 2-.7 3.4-.7 3.4zm11.7-.4c-.1 0-.3-.8-.4-1.7-.1-1-.1-1.8 0-1.8s.3.8.4 1.7c.1 1 .1 1.8 0 1.8zm3.3-.1c-.1 0-.5-.5-.8-1.3s-.5-1.4-.4-1.5c.1 0 .5.5.8 1.3s.5 1.4.4 1.5zm3.1-2.3c0 .1-.8-.2-1.8-.6-.9-.4-1.6-.9-1.6-1s.8.2 1.8.6c.9.5 1.6.9 1.6 1zm1.6-1.8c0 .1-1 .1-2.1-.3s-1.9-1.1-1.8-1.2.9.4 2 .8c.9.3 1.9.5 1.9.7z"/><path d="M999.1 712.2s-.9-.2-2.1-1c-.6-.4-1.3-.9-2-1.5-.3-.3-.7-.6-1-1.1-.1-.2-.3-.5-.2-.9s.4-.6.7-.7c2.5-.1 3.9 2 4.2 3.3.2.7.1 1.3 0 1.7s-.2.6-.2.6c-.1 0 .2-.9-.1-2.2-.2-.7-.6-1.4-1.2-2s-1.6-1.1-2.5-1c-.4.1-.5.5-.2.9.2.4.6.7.9 1l1.9 1.6c1 .9 1.8 1.2 1.8 1.3z"/><path d="M998.5 712.1s-.1-.7.4-1.5c.3-.4.7-.9 1.3-1.2s1.4-.7 2.2-.2c.5.3.4.9.2 1.3-.2.3-.5.6-.8.8-.6.4-1.1.6-1.6.8-.9.3-1.6.3-1.6.3 0-.1.6-.2 1.5-.6l1.5-.8c.5-.3 1.1-1 .6-1.3s-1.3 0-1.8.2c-.5.3-.9.7-1.2 1.1-.6.5-.6 1.1-.7 1.1zm35.8 14.3c0 .1-.9-.5-2.4-1s-3.8-.9-6.2-.3-4.3 1.9-5.4 3-1.6 2.1-1.7 2l.3-.6c.2-.4.6-1 1.2-1.6 1.1-1.2 3-2.7 5.5-3.3s4.9-.2 6.4.5c.8.3 1.4.6 1.7.9.5.2.7.4.6.4z"/><path d="M1037.3 711.4c.1 0-1.2 3.1-2.8 6.7l-3.2 6.6c-.1 0 1.2-3.1 2.8-6.7l3.2-6.6zm-21.4 13.8c0 .1-2.3-.5-4.9-1.8-2.6-1.2-4.6-2.5-4.5-2.6s2.1 1 4.7 2.2l4.7 2.2zm6.3 3c0 .1-.4.4-.8.7-.4.4-.8.8-.9.7s.1-.6.6-1c.5-.5 1.1-.6 1.1-.4zm3.8-1.9c0 .1-.3.3-.8.5s-.9.2-1 .1c0-.1.3-.3.8-.5.5-.1 1-.2 1-.1zm4 .3c-.1.1-.5-.1-1.1-.2-.5-.1-1 0-1.1-.1s.4-.4 1.1-.3c.8.1 1.2.5 1.1.6zm2.8.5c0 .1-.3.2-.6.2s-.6-.1-.6-.3c0-.1.3-.2.6-.2.3.1.6.2.6.3z"/></g><path d="M1097.2 816.4l-.4-19 35.6-1 .9 27.8-2.2.2c-9.8.8-49.9 3.4-56.5 1.6-7.5-2 22.6-9.6 22.6-9.6z" fill="#666"/><g class="l o"><path d="M1120.3 824.3c.4-3 2-5.8 4.3-7.7s5.2-3 8.2-2.8l.3 9.9-12.8.6z"/></g><g class="p o"><path d="M1082.5 820.6s-10.5 3.3-9.1 5.1c1.4 1.7 42 .6 59.9-1.5l-.1-.8-47.4 1.7c0 0-1.2-4.4-3.3-4.5z"/></g><g class="k"><path d="M1133.7 823.4s-.2 0-.6.1c-.5 0-1.1.1-1.8.2l-6.5.5-21.3 1-21.4.2c-2.6 0-4.7-.1-6.5-.1-.7 0-1.2 0-1.8-.1h-.6.6 1.8 6.5c5.5 0 13-.1 21.4-.4l21.3-.8 6.5-.3c.7 0 1.2-.1 1.8-.1.4-.2.6-.2.6-.2z"/><path d="M1085.8 825.7c-.1 0-.3-1.5-1.3-3.1s-2.3-2.3-2.3-2.4 1.6.5 2.6 2.2c1.2 1.7 1.1 3.3 1 3.3zm10.4-5.6c-.1.1-.6-.5-1.2-1.3-.5-.8-.9-1.5-.8-1.6s.6.5 1.2 1.3c.5.8.9 1.5.8 1.6zm2.8-1.6c-.1.1-.6-.3-1.3-.8-.6-.5-1.1-1-1-1.1s.6.3 1.3.8c.6.5 1.1 1 1 1.1zm1.7-3.4c0 .1-.8.2-1.9.3-1 0-1.9 0-1.9-.1s.8-.2 1.9-.3 1.9-.1 1.9.1zm.6-2.4c0 .1-.9.5-2.1.7-1.2.1-2.2-.1-2.1-.2 0-.1 1-.1 2.1-.2 1.1-.2 2-.4 2.1-.3z"/><path d="M1094.9 817s-.9.2-2.3 0c-.7-.1-1.5-.2-2.4-.5-.5-.1-.9-.3-1.4-.5a1.41 1.41 0 0 1-.6-.7c-.1-.3.1-.7.3-.9 2.2-1.2 4.4 0 5.2 1.1.5.6.7 1.1.8 1.5s.1.6.1.6c-.1 0-.2-.9-1.1-1.9-.5-.5-1.1-1-2-1.2-.8-.2-2-.2-2.7.3-.4.3-.2.7.2.9s.9.4 1.3.5c.9.3 1.7.4 2.4.5 1.3.3 2.2.2 2.2.3z"/><path d="M1094.3 817.1s-.4-.5-.3-1.6c0-.5.2-1.1.6-1.7.4-.5.9-1.2 1.9-1.2.5.1.8.6.7 1a1.53 1.53 0 0 1-.4 1 5.63 5.63 0 0 1-1 1.4c-.7.7-1.3 1-1.3 1 0-.1.4-.4 1.1-1.2.3-.4.6-.8.9-1.4.3-.5.5-1.4-.1-1.5-.6 0-1.1.5-1.5 1-.3.5-.5 1-.6 1.5-.2 1.1.1 1.7 0 1.7zm38.4-3.4c0 .1-1-.1-2.6.2-1.6.2-3.8.9-5.7 2.5s-3 3.6-3.4 5.2c-.5 1.5-.5 2.6-.6 2.6v-.7c0-.5.1-1.1.3-1.9.4-1.6 1.5-3.7 3.5-5.4s4.3-2.3 5.9-2.5c.8-.1 1.5-.1 2 0 .4-.1.6 0 .6 0z"/><path d="M1128.6 799c.1 0 .3 3.3.5 7.3l.1 7.3c-.1 0-.3-3.3-.5-7.3l-.1-7.3zm-12.8 21.9c0 .1-2.3.6-5.2.7s-5.2-.2-5.2-.3 2.3 0 5.2-.2l5.2-.2zm6.9-.2c.1.1-.2.5-.4 1s-.3 1-.5 1c-.1 0-.2-.6.1-1.2.3-.5.8-.8.8-.8zm2.6-3.3c.1.1-.1.5-.5.8-.4.4-.7.6-.8.5s.1-.5.5-.8c.3-.3.7-.6.8-.5zm3.7-1.6c0 .1-.5.1-1 .3s-.9.5-1 .4.2-.6.8-.8c.7-.2 1.2 0 1.2.1zm2.7-.8c0 .1-.2.3-.4.4-.3.1-.6.1-.6 0s.2-.3.4-.4.5-.1.6 0zm-6.5-347.9c-.1-.1.4-2 1.3-5.1l1.8-5.5 1.2-3.2c.2-.6.6-1.1.7-1.6.2-.5.2-1.1.2-1.6 0-1.2-.3-2.3-.5-3.5l-.6-3.3-1-5.7-.6-5.3c.1 0 .7 1.9 1.4 5.1l1.2 5.6.7 3.3c.2 1.1.5 2.3.6 3.7 0 .7 0 1.3-.3 2-.2.7-.6 1.2-.8 1.7l-1.3 3.1-2 5.4-2 4.9z"/></g><g opacity=".3"><path d="M1204.1 434.9c1.4 21.2 3.5 45 3.9 66.2 3.3-1.5 11-7.1 11-7.9 0 0-10.1-35.5-14.9-58.3z"/></g><g class="k"><path d="M1239.4 559.9s-146-30.6-160.1-23.9-79.3 167.8-79.3 167.8l44 16.1 59.7-133.7s107.5 40.5 125.4 36.8 10.3-63.1 10.3-63.1z"/><path d="M1174.1 568.5c-2.2.7-86.7 35.5-92.6 46.6-6 11.2 8.7 196.4 8.7 196.4h48l-3-164.7 93.7-23.7-54.8-54.6z"/></g><path d="M1229.4 623.5s-.5 0-1.4-.2l-3.9-.7c-3.4-.6-8.3-1.6-14.4-2.9-12.1-2.6-28.8-6.4-47-11.6-9.1-2.6-17.7-5.4-25.4-8-7.7-2.7-14.6-5.3-20.3-7.8l-7.7-3.3c-2.3-1-4.2-1.9-5.7-2.7-1.5-.7-2.6-1.3-3.6-1.8-.8-.4-1.2-.7-1.2-.7s.5.1 1.3.5l3.6 1.6c1.6.7 3.5 1.6 5.8 2.5 2.3 1 4.8 2.1 7.7 3.2 5.7 2.3 12.7 4.8 20.4 7.5 7.8 2.6 16.3 5.3 25.4 7.9 18.1 5.2 34.8 9.2 46.9 11.9l14.3 3.2c1.6.4 2.9.7 3.9.9.9.4 1.3.5 1.3.5zm-147.9 34.2c-.1 0-.2-1-.4-2.8l-.8-7.6-1-11.3c-.3-4.2-.9-9 0-14s3.8-9.2 7-12.1 6.7-4.8 9.6-6.2c3-1.4 5.4-2.2 7.1-2.8s2.7-.9 2.7-.8c.1.2-3.7 1.5-9.5 4.3-2.9 1.4-6.2 3.3-9.3 6.2-3 2.8-5.8 6.8-6.6 11.5-.9 4.7-.3 9.4 0 13.7l.8 11.3.5 7.6c0 2 0 3-.1 3z" class="t"/><g class="k"><path d="M1123.7 641.8c.1-.3 2.8.6 5.9 2s5.6 2.7 5.5 3-2.8-.6-5.9-2c-3.2-1.4-5.7-2.7-5.5-3z"/><path d="M1127.9 636.7c.3-.1 1.6 2.5 3.8 5.4s4.4 4.9 4.2 5.2c-.2.2-2.8-1.5-5-4.5-2.4-3-3.3-6-3-6.1z"/><path d="M1146.3 644.3s-.1.4-.7.8-1.6.6-2.8.7-2.6-.1-4 .1-2.4 1.3-2.4 3.1c-.1 7-.3 12.8-.6 12.8s-.6-5.7-.5-12.9c.1-.9.2-2 .9-2.7.6-.8 1.6-1.2 2.4-1.3 1.7-.2 3 .1 4.2.1 2.3.2 3.4-.8 3.5-.7zm-8.9-339c-7.3 2.4-15.8 7.2-11.6 30 1.8 10 4.2 20.3 10.9 28 1 1.2 2.4 2.4 3.9 2.2 1.1-.2 1.9-1 2.7-1.8 7.7-8.3 14.2-18.2 16.2-29.3 2.1-11.1-1-23.7-9.8-30.9"/></g><path d="M1151.4 404.5l-.7-21.8s-16-2-16.7-18.3-.9-44.9-.9-44.9l31.2-23.1 21.9 30.2.5 77.4c.1 9.8-7.9 17.9-17.7 17.9h0c-9.5-.1-17.4-7.8-17.6-17.4z" class="q"/><path d="M1150.7 382.7s10.7.3 21.2-6.9c0 0-5 11.9-20.9 10.9l-.3-4zm1.4-19c-.3-.6-.2-1.4.2-1.9s1.1-.9 1.8-.8c.1-1.5 1.6-2.7 3.1-2.7 1.5.1 2.8 1.3 3.1 2.8s-.5 3-1.7 3.9c-1.3.8-2.9.9-4.3.3-1.1-.5-2-1.4-2.2-2.6" class="u"/><g class="k"><use xlink:href="#E"/><path d="M1136.5 337.4c.3.3 2-1 4.4-1s4.2 1.2 4.4.9c.1-.1-.2-.7-.9-1.2-.8-.6-2.1-1.1-3.6-1.1a6.3 6.3 0 0 0-3.5 1.1c-.6.7-.9 1.2-.8 1.3z"/><use xlink:href="#E" x="24.2" y="0.2"/><path d="M1160.2 337.9c.3.3 2-1 4.4-1s4.2 1.2 4.4.9c.1-.1-.2-.7-.9-1.2-.8-.6-2.1-1.1-3.6-1.1a6.3 6.3 0 0 0-3.5 1.1c-.7.6-.9 1.1-.8 1.3zm-8.7 17.8c0-.1-1.5-.4-3.9-.7-.6-.1-1.2-.2-1.3-.6s.1-1.1.4-1.8l1.8-4.7c2.5-6.7 4.4-12.2 4.1-12.3s-2.5 5.2-5.1 11.9l-1.7 4.7c-.2.7-.6 1.5-.3 2.4.2.5.6.8 1 .9s.7.1 1 .1c2.5.3 4 .3 4 .1zm7.1 1.7c-.4 0-.4 2.6-2.6 4.4-2.2 1.9-5 1.6-5 1.9 0 .2.6.5 1.8.5s2.8-.3 4.2-1.5c1.4-1.1 2-2.7 2-3.7s-.2-1.6-.4-1.6zm.5-24.9c.2.7 2.6.3 5.5.7 2.8.3 5.1 1.1 5.5.5.2-.3-.2-.9-1.2-1.5-.9-.6-2.4-1.2-4.1-1.4s-3.3.1-4.3.5c-.9.4-1.5.9-1.4 1.2zm-21.7-2.1c.4.5 2.1 0 4.1 0 2-.1 3.7.4 4.1-.2.2-.3-.1-.8-.8-1.3s-1.9-.9-3.3-.9-2.6.5-3.3 1.1c-.7.5-1 1.1-.8 1.3zm34.4.8c2.9-.1 5.7-.9 7.9-2.8 1.4 3.9 1.4 8.1 2.7 12s2.6 41.4 6.7 40.8c3.7-.6 8.2-38.2 9.1-41.9 2.6-10.1-.7-21.2-7.4-29.2-8-9.5-21.2-17.6-33.6-16.7-5.5.4-11 2-15.3 5.4 0 0-6.7 5.1-6.1 11.7.8 9.1 14.1 15 23.3 14.7l1.3 1.3c3.1 2.9 7.2 4.8 11.4 4.7z"/><path d="M1133.1 328.2c2.3-1.8 3.8-4.5 4.5-7.3.8-2.8.9-5.8 1.1-8.7.0-.8-.1-1.9-.9-2.2-.8-.2-1.5.6-1.8 1.3-2.8 5.4-3.9 11.7-2.9 17.7.2-.2-.5.5-.4.3"/></g><path d="M906.8 819.3l.1-19.5-36.6-.4-.5 28.6 2.3.2c10.1.7 51.4 2.8 58.2.8 7.6-2.4-23.5-9.7-23.5-9.7z" fill="#1d2556"/><g class="p"><path d="M883.2 827.7c-.5-3.1-2.2-5.9-4.6-7.9-2.4-1.9-5.4-3-8.5-2.8l-.1 10.2 13.2.5z"/></g><g class="p"><path d="M922 823.4s10.9 3.3 9.5 5.1-43.2 1.2-61.6-.6l.1-.8 48.7 1s1.2-4.6 3.3-4.7z"/></g><g class="k"><path d="M869.4 827s.2 0 .6.1c.5 0 1.1.1 1.8.1l6.7.4c5.6.3 13.4.5 22 .7 8.6.1 16.4 0 22-.1l6.7-.2c.7 0 1.3-.1 1.8-.1.4 0 .6 0 .6-.1h-.6-1.8c-1.8 0-4 0-6.7.1-5.6 0-13.4.1-22-.1l-22-.5-6.7-.2H870c-.4-.1-.6-.1-.6-.1z"/><path d="M918.7 828.7c.1 0 .3-1.6 1.3-3.2s2.4-2.4 2.3-2.5c0-.1-1.6.6-2.7 2.3s-1 3.4-.9 3.4zm-10.8-5.7c.1.1.6-.6 1.2-1.4.5-.8.9-1.6.8-1.6-.1-.1-.6.6-1.2 1.4-.5.8-.9 1.6-.8 1.6zm-2.9-1.6c.1.1.7-.3 1.3-.8.6-.6 1.1-1.1 1-1.2s-.7.3-1.3.8c-.6.6-1.1 1.1-1 1.2zm-1.8-3.4c0 .1.9.2 1.9.3s1.9-.1 1.9-.2-.9-.2-1.9-.3c-1.1 0-1.9 0-1.9.2zm-.6-2.5c0 .1.9.5 2.1.6s2.2-.2 2.2-.3-1-.1-2.2-.2c-1.2 0-2.1-.2-2.1-.1z"/><path d="M909.2 819.9s.9.2 2.4 0c.7-.1 1.6-.2 2.5-.5.5-.2.9-.3 1.4-.6.2-.2.5-.4.6-.7.1-.4-.1-.7-.3-.9-2.2-1.2-4.5 0-5.4 1.2-.5.6-.7 1.2-.8 1.6s-.1.6-.1.6c.1 0 .2-.9 1.1-2 .5-.5 1.1-1 2-1.3.8-.2 2-.3 2.8.2.4.3.2.7-.2 1-.4.2-.9.4-1.3.5-.9.3-1.7.5-2.4.6l-2.3.3z"/><path d="M909.8 820s.4-.6.3-1.6c-.1-.5-.2-1.1-.6-1.7-.4-.5-.9-1.3-1.9-1.2-.5.1-.8.7-.7 1.1 0 .4.2.8.4 1.1.3.6.7 1.1 1.1 1.4.7.7 1.3 1 1.3 1 0-.1-.5-.4-1.1-1.2l-1-1.4c-.3-.5-.5-1.4.1-1.5.6 0 1.2.5 1.5 1 .4.5.6 1.1.6 1.5.2.9 0 1.5 0 1.5zm-39.6-3c0 .1 1-.1 2.7.1a12.16 12.16 0 0 1 5.9 2.5c2 1.6 3.1 3.7 3.6 5.3l.7 2.6v-.7c0-.5-.1-1.2-.4-2-.5-1.6-1.6-3.8-3.6-5.5s-4.4-2.3-6.1-2.5c-.9-.1-1.5 0-2 0l-.8.2z"/><path d="M874.2 801.8c-.1 0-.3 3.4-.4 7.5v7.5c.1 0 .3-3.4.4-7.5v-7.5zm13.6 22.4c0 .1 2.4.5 5.3.6 3 .1 5.4-.2 5.4-.4 0-.1-2.4 0-5.3-.1l-5.4-.1zm-7.2-.1c-.1.1.2.5.4 1.1.2.5.4 1 .5 1s.2-.6-.1-1.2c-.2-.6-.7-1-.8-.9zm-2.6-3.4c-.1.1.1.5.5.9s.7.6.8.6c.1-.1-.1-.5-.5-.9s-.7-.7-.8-.6zm-3.9-1.6c0 .1.5.1 1 .3s.9.5 1 .4-.2-.6-.9-.8c-.5-.2-1.1 0-1.1.1zm-2.7-.7c0 .1.2.3.5.4s.6.1.6 0-.2-.3-.5-.4-.6-.1-.6 0z"/></g><path d="M764.7 819.3l-.1-19.5 36.6-.4.5 28.6-2.3.2c-10.1.7-51.4 2.8-58.2.8-7.5-2.4 23.5-9.7 23.5-9.7z" fill="#1d2556"/><g class="p"><path d="M788.4 827.7c.5-3.1 2.2-5.9 4.6-7.9 2.4-1.9 5.4-3 8.5-2.8l.1 10.2-13.2.5z"/></g><g class="p"><path d="M749.5 823.4s-10.9 3.3-9.5 5.1 43.2 1.2 61.6-.6l-.1-.8-48.7 1s-1.1-4.6-3.3-4.7z"/></g><g class="k"><path d="M802.1 827s-.2 0-.6.1c-.5 0-1.1.1-1.8.1l-6.7.4c-5.6.3-13.4.5-22 .7-8.6.1-16.4 0-22-.1l-6.7-.2c-.7 0-1.3-.1-1.8-.1-.4 0-.6 0-.6-.1h.6 1.8c1.8 0 4 0 6.7.1l22-.1 22-.5 6.7-.2h1.8c.4-.1.6-.1.6-.1z"/><path d="M752.8 828.7c-.1 0-.3-1.6-1.3-3.2s-2.4-2.4-2.3-2.5c0-.1 1.6.6 2.7 2.3s1 3.4.9 3.4zm10.8-5.7c-.1.1-.6-.6-1.2-1.4-.5-.8-.9-1.6-.8-1.6.1-.1.6.6 1.2 1.4.5.8.9 1.6.8 1.6zm2.9-1.6c-.1.1-.7-.3-1.3-.8-.6-.6-1.1-1.1-1-1.2s.7.3 1.3.8c.6.6 1.1 1.1 1 1.2zm1.8-3.4c0 .1-.9.2-1.9.3-1.1 0-1.9-.1-1.9-.2s.9-.2 1.9-.3c1.1 0 1.9 0 1.9.2zm.7-2.5c0 .1-.9.5-2.1.6s-2.2-.2-2.2-.3 1-.1 2.2-.2c1.1 0 2-.2 2.1-.1z"/><path d="M762.3 819.9s-.9.2-2.4 0c-.7-.1-1.6-.2-2.5-.5-.5-.2-.9-.3-1.4-.6-.2-.2-.5-.4-.6-.7-.1-.4.1-.7.3-.9 2.2-1.2 4.5 0 5.4 1.2.5.6.7 1.2.8 1.6s.1.6.1.6c-.1 0-.2-.9-1.1-2-.5-.5-1.1-1-2-1.3-.8-.2-2-.3-2.8.2-.4.3-.2.7.2 1 .4.2.9.4 1.3.5.9.3 1.7.5 2.4.6l2.3.3z"/><path d="M761.7 820s-.4-.6-.3-1.6c.1-.5.2-1.1.6-1.7.4-.5.9-1.3 1.9-1.2.5.1.8.7.7 1.1 0 .4-.2.8-.4 1.1-.3.6-.7 1.1-1.1 1.4-.7.7-1.3 1-1.3 1 0-.1.5-.4 1.1-1.2l1-1.4c.3-.5.5-1.4-.1-1.5-.6 0-1.2.5-1.5 1-.4.5-.6 1.1-.6 1.5-.2.9.1 1.5 0 1.5zm39.6-3c0 .1-1-.1-2.7.1a12.16 12.16 0 0 0-5.9 2.5c-2 1.6-3.1 3.7-3.6 5.3l-.7 2.6v-.7c0-.5.1-1.2.4-2 .5-1.6 1.6-3.8 3.6-5.5s4.4-2.3 6.1-2.5c.9-.1 1.5 0 2 0l.8.2z"/><path d="M797.3 801.8c.1 0 .3 3.4.4 7.5v7.5c-.1 0-.3-3.4-.4-7.5v-7.5zm-13.6 22.4c0 .1-2.4.5-5.3.6-3 .1-5.4-.2-5.4-.4 0-.1 2.4 0 5.3-.1l5.4-.1zm7.2-.1c.1.1-.2.5-.4 1.1-.2.5-.4 1-.5 1s-.2-.6.1-1.2c.2-.6.7-1 .8-.9zm2.6-3.4c.1.1-.1.5-.5.9s-.7.6-.8.6c-.1-.1.1-.5.5-.9s.8-.7.8-.6zm3.9-1.6c0 .1-.5.1-1 .3s-.9.5-1 .4.2-.6.9-.8c.6-.2 1.1 0 1.1.1zm2.7-.7c0 .1-.2.3-.5.4s-.6.1-.6 0 .2-.3.5-.4.6-.1.6 0z"/><path d="M931.5 445l-14 366.9-57 1.2 9.5-317.9-64.2 320.3h-54.2l69.9-369.8z"/><path d="M883.1 458.3c.1 0-.1 2.3-.7 6-.5 3.7-1.3 8.8-2.3 14.5-.5 2.8-.8 5.5-1.6 8-.8 2.4-2.2 4.4-3.7 5.6s-3.1 1.7-4.1 1.8c-1.1.1-1.7 0-1.7 0-.1-.2 2.5 0 5.3-2.4 1.4-1.2 2.6-3 3.3-5.3s1-5 1.5-7.9c.9-5.6 1.9-10.7 2.6-14.4.7-3.6 1.3-5.9 1.4-5.9zm-11.9 1.8c.1.1-.3.7-.1 1.6.1.5.4 1 1 1.2.5.3 1.2.1 1.7-.3.5-.5.7-1.1.6-1.6-.2-.5-.7-.9-1.1-1.1-.9-.4-1.6 0-1.6-.1-.1-.1.5-.8 1.9-.5.6.2 1.4.6 1.7 1.5.4.9 0 2.1-.8 2.7-.8.7-2 .9-2.8.4s-1.1-1.3-1.2-1.9c-.2-1.5.7-2.1.7-1.9zm-30.6 5.2c-.2.1-1.1-2.3-.7-5.2.3-3 1.6-5.1 1.8-5 .3.1-.6 2.3-.8 5.1-.3 2.8 0 5-.3 5.1zm6.9-.4c-.3.1-1-2.3-.8-5.4s1.3-5.3 1.6-5.2-.4 2.4-.6 5.3c-.3 2.8.1 5.2-.2 5.3zm58.9 1.5c-.3-.1.2-2.5.3-5.5l.2-5.5c.3-.1.9 2.4.8 5.6-.1 3-1.1 5.4-1.3 5.4zm7.4-.4c-.3-.1.6-2.5.8-5.6s-.3-5.6 0-5.7c.2-.1 1.3 2.4 1 5.7-.2 3.3-1.5 5.7-1.8 5.6z"/></g><path d="M852.1 292.3l35.2-2.8c.2-4.1-.1-20-.1-20s14.6-2.3 14.8-16.9-2.4-48.3-2.4-48.3h0c-16.9-7.3-36.5-4.8-51.1 6.4l-2.2 1.7 5.8 79.9z" class="q"/><path d="M887.3 269.3s-9.3.8-19.1-5.4c0 0 4.5 10.5 19.1 9.2v-3.8z" class="u"/><path d="M848.2 227.6c-.2-.1-10.1-3-9.7 7 .3 10 10.3 7.6 10.3 7.3 0-.2-.6-14.3-.6-14.3z" class="q"/><path d="M845.6 238.3s-.2.1-.5.3c-.3.1-.8.2-1.3.1-1.1-.4-2-2-2.1-3.8-.1-.9.1-1.8.4-2.5s.7-1.3 1.3-1.4c.5-.1.9.2 1 .4a1.75 1.75 0 0 1 .1.5s.2-.2.1-.6c0-.2-.2-.4-.4-.6s-.6-.3-1-.2c-.8.1-1.4.8-1.8 1.6a5.21 5.21 0 0 0-.5 2.8c.1 2 1.2 3.9 2.7 4.2.7.2 1.3-.1 1.6-.3.4-.3.4-.5.4-.5z" class="u"/><path d="M896.5 227.3c0 1.1-.9 2-2 2.1-1.2.1-2.1-.8-2.2-1.9 0-1.1.9-2 2-2.1 1.2-.1 2.1.8 2.2 1.9zm.4-2.4c-.3.3-1.8-.9-4.1-.9-2.2 0-3.9 1.1-4.1.9-.1-.1.1-.6.9-1.1.7-.5 1.9-1 3.3-1s2.6.5 3.3 1.1c.6.4.9.9.7 1zm-22.5 2.9c0 1.1-.9 2-2 2.1-1.2.1-2.1-.8-2.2-1.9 0-1.1.9-2 2-2.1 1.2 0 2.2.8 2.2 1.9zm.4-2.5c-.3.3-1.8-.9-4.1-.9-2.2 0-3.9 1.1-4.1.9-.1-.1.1-.6.9-1.1.7-.5 1.9-1 3.3-1s2.6.5 3.3 1.1c.6.4.8.9.7 1zM883 242c0-.1 1.4-.4 3.7-.7.6-.1 1.1-.2 1.2-.6s-.1-1-.4-1.7l-1.7-4.4c-2.4-6.2-4.1-11.4-3.8-11.4.3-.1 2.4 4.9 4.7 11.1.6 1.5 1.1 3 1.6 4.4.2.7.6 1.4.3 2.3a1.71 1.71 0 0 1-.9.8c-.4.1-.7.1-1 .1-2.3.2-3.7.3-3.7.1zm-6.6 1.6c.4 0 .4 2.4 2.5 4.2 2.1 1.7 4.7 1.5 4.7 1.8 0 .2-.6.5-1.7.5s-2.7-.3-3.9-1.4c-1.3-1.1-1.8-2.5-1.9-3.5-.2-1 .1-1.6.3-1.6zm-1-27.1c-.2.6-2.5.3-5.1.6s-4.8 1-5.1.5c-.2-.3.2-.8 1.1-1.4s2.2-1.2 3.8-1.3a8.14 8.14 0 0 1 4 .5c.9.4 1.4.8 1.3 1.1zm20.7 1.9c-.4.5-1.9 0-3.8 0-1.9-.1-3.4.3-3.8-.2-.2-.3.1-.8.8-1.3s1.8-.9 3.1-.8c1.3 0 2.4.5 3 1 .7.5.9 1.1.7 1.3zm10.7-23.3c.2-1.8-.5-3.8-2-4.8-1.5-1.1-3.8-1-5 .4.7-2.4-1.3-5.3-3.8-5.4-2.4-.2-4.4 1.7-6.7 2.3s-4.7.1-6.8-.8l-6.4-2.9c-4.6-1.7-9.8-1.5-14.2.6-4.4 2-8 5.9-9.7 10.4-3.2-1-6.8.6-8.8 3.3s-2.5 6.3-2.1 9.6c.3 2.3.9 4.4 1.7 6.6v.6c.2 8.1 1.1 17.5 4.5 17.6 6 .1 4.6-11.2 4.6-11.2 7.3-2.8 4.6-13.8 6.4-15.5s5.7-5.6 21.1 2.3c6 3.1 13.9 3 18.3 2 .1 0 .3 0 .4-.1h.1s.1 0 .1-.1c1.4-.4 2.7-.9 3.9-1.7 1.4-.9 2.7-2.1 3.3-3.6s.4-3.5-.8-4.6c.9-1.5 1.8-3.2 1.9-5z" class="k"/><g class="z"><path d="M835.2 286.8c4.9-.9 9.7-2.7 15.5-3h0c12.5 3.9 25 3.9 37.5 0 1.5.2 3.6.4 6.3.7 16.3 1.9 22.6 5.4 34.3 16.9l-1.3 66 3.6 87.2H819.8l-.1-50.9v-13.9L783 403.2l3.3-19.2 19-72.4c3.2-10.5 14.3-21.8 29.9-24.8z"/><path d="M799.8 385l54.9-7.8 10.4 18.7-51 23c-2.8 1.3-5.9 1.9-9.1 1.9v0c-8.9.0-17-5.4-20.4-13.7l-1.7-4L799.8 385z"/></g><path d="M904.2 368.2l-1.2-.9a27.75 27.75 0 0 0-21.6-5h0c-6.2 1.2-12 3.9-16.8 7.9l-9.4 7.7 10 17.9 6.8-9.5s6.4 8.6 7.5 7.7 2.5-3.6 2.5-3.6l-4.5-6.4 10.9 2.3 15.9-7.3-6.8-8.6 6.8 2.3v-4.5z" class="q"/><path d="M912 288.8s15.5 5.3 22 20.2c4.3 9.7 10.5 56.6 10.5 56.6l7.9 15.2c1.9 3.6 2.9 7.7 2.9 11.8v2.3c0 5.9-2 11.6-5.7 16.2h0c-4.4 5.4-10.7 8.7-17.6 9.4-7.9.7-17.4 1-19.4-1.3-3.6-4.1-9-15.1-9-15.1l22.9-12.2-9.9-18.3-4.6-84.8z" class="z"/><g class="k"><path d="M818 417.2s.3-.2.9-.5c.7-.3 1.6-.8 2.6-1.3l9.9-4.6 33.6-15.4-.2.7-6.4-11.5-4-7.2.5.3-40.2 3.9-12 1.1-3.2.2c-.7 0-1.1.1-1.1 0 0 0 .4-.1 1.1-.2l3.2-.4 11.9-1.4 40.2-4.3h.3l.2.3 4 7.2 6.4 11.5.3.5-.5.2-33.8 15-10 4.3-2.7 1.1c-.7.4-1 .5-1 .5z"/><path d="M827.7 379.6c-.3 0-.5-9.8-.5-21.9s.2-21.9.5-21.9.5 9.8.5 21.9-.2 21.9-.5 21.9zm94.5 14.6c0-.1.6-.2 1.7-.3s2.7-.2 4.6.3c1 .2 2.1.7 2.9 1.6.8 1 1.3 2.2 1.5 3.5s.2 2.8-.4 4.2c-.5 1.4-1.5 2.7-2.8 3.6-2.6 1.8-5.5 2.3-8 2.8s-4.9.7-6.8.7c-3.9 0-6.2-1-6.2-1.1s2.3.6 6.2.4c1.9-.1 4.2-.3 6.6-.9s5.2-1.1 7.5-2.7 3.2-4.4 2.8-6.8c-.2-1.2-.6-2.3-1.2-3.1s-1.6-1.2-2.5-1.5c-1.8-.5-3.4-.5-4.4-.6-.9 0-1.5 0-1.5-.1zm9.1 26.6c0 .1-1.5.4-3.9.5-2.4 0-5.9-.2-9.5-1.6-1.8-.7-3.4-1.5-4.7-2.5s-2.3-2.2-2.9-3.3c-1.2-2.2-1.5-3.7-1.4-3.7.2-.1.7 1.4 2 3.4.7 1 1.6 2 2.9 2.9s2.8 1.6 4.5 2.3c3.4 1.3 6.7 1.7 9.1 1.8s3.9 0 3.9.2zm11-47.6c.1.1-.9 1.3-2.7 3.3-1.8 1.9-4.2 4.6-7 7.4-2.8 2.9-5.4 5.4-7.2 7.2-1.9 1.8-3.1 2.9-3.2 2.8s.9-1.3 2.7-3.3c1.8-1.9 4.2-4.6 7-7.4 5.5-5.7 10.2-10.2 10.4-10zm-25-10.2c-.3 0-.5-5.6-.5-12.5s.2-12.5.5-12.5.5 5.6.5 12.5-.2 12.5-.5 12.5z"/></g><g class="s"><path d="M932.7 451c0 .3-25.3.5-56.4.5-31.2 0-56.4-.2-56.4-.5s25.3-.5 56.4-.5l56.4.5zm-82.9-49c-.1.1-1.3-.8-2.8-2.6s-3.4-4.6-4.6-8.1-1.6-6.8-1.5-9.2.4-3.8.5-3.8c.3 0-.5 5.9 1.9 12.6 2.4 6.8 6.8 10.9 6.5 11.1zm-5.2 3c-.1.1-1.4-.9-3-2.9-1.7-2-3.6-5.1-5-8.9-1.3-3.8-1.7-7.4-1.6-10s.5-4.2.6-4.2c.3 0-.7 6.5 2 13.9 2.5 7.5 7.3 11.9 7 12.1zm-4.9 2.5c-.1.1-1.5-.8-3.4-2.9-1.9-2-4.1-5.3-5.4-9.4s-1.5-8-1.2-10.8.9-4.4 1-4.4c.2 0-.2 1.7-.3 4.4s.2 6.5 1.4 10.4c1.3 3.9 3.3 7.1 5 9.2 1.7 2.3 3 3.4 2.9 3.5zm70.8 4.1c.1-.1.6.4 1.7 1.1 1.1.6 2.9 1.2 5.2 1.3s5-.1 8-.5c2.9-.4 6.3-1.4 8.4-4.1 2.1-2.6 2.9-6.1 2.5-9s-1.9-5.3-3.5-6.9c-3.2-3.3-6.3-3.8-6.1-4 0-.1.7 0 2 .5 1.2.5 3 1.4 4.7 3s3.4 4.1 3.9 7.3c.5 3.1-.3 6.8-2.6 9.7-1.2 1.4-2.7 2.5-4.3 3.2s-3.2 1-4.8 1.2c-3.1.4-5.8.5-8.2.3s-4.2-.9-5.3-1.7c-1.2-.8-1.7-1.4-1.6-1.4z"/><path d="M930.5 386.2s.2-.1.6-.1 1 .1 1.7.3c1.5.4 3.5 1.7 5.2 3.9s3.2 5.1 4.3 8.6c.5 1.7.8 3.7.6 5.7s-.9 4.1-2.1 5.8c-2.4 3.6-6 5.8-9.5 6.9s-6.8 1.2-9.5 1.1-4.9-.4-6.4-.7c-1.5-.2-2.3-.4-2.3-.5 0-.2 3.3.4 8.7.5 2.7 0 5.9-.2 9.2-1.3s6.7-3.2 8.9-6.5c1.1-1.6 1.7-3.5 1.9-5.4s-.1-3.7-.5-5.4c-1-3.4-2.4-6.3-4-8.4s-3.4-3.4-4.7-3.9-2.1-.5-2.1-.6z"/></g><path d="M887.4 366.6l-34.9 42.3 2.7 2.9 56.7-8.6 28.1-42.4-2.6-2.3z" class="k"/><path d="M924.5 377.8h0c-2.2 0-4.2 1.4-5 3.4-.8 2.2-2.1 4.7-3.4 5.5-2.5 1.4-6.9 2.5-9.2 1.4s-11.5-9.4-13.1-8.5-3 3-1.4 4.8 10.1 7.3 8.5 9.2c-1.6 1.8-19.5-6.2-22.2-5.5s-4.4 2.4-2.7 3.5c1.6 1.1 13.7 5.7 14.4 7.3 0 0-18.3-4.8-19-3.7s-1.8 3 0 3.7 17.6 4.8 19 5.5 6.1 2.1 7.1 2.1c.5 0 4.1 1.2 7.4 2.3 3.7 1.3 7.8 1.2 11.4-.3l1.9-.8c2.9-1.2 4.7-4.1 4.5-7.2l-.4-6.2 2-5.2.2-11.3z" class="q"/><path d="M940.1 361.1l-1 .3-3 .5c-2.8.4-6.6 1.1-11.2 1.8l-16.6 2.5-9.8 1.5c-3.3.6-6.8 1.5-9.5 3.8s-4.7 5.3-6.9 7.9a295.33 295.33 0 0 1-6.2 7.7l-10.5 13.1-7.2 8.8-2 2.3c-.5.5-.7.8-.7.8l.6-.9 1.8-2.5 6.9-8.9 10.4-13.2 6.2-7.8c2.2-2.6 4.2-5.6 7-8.1 2.9-2.5 6.6-3.5 10-4l9.8-1.4 16.6-2.3 11.2-1.5c1.2-.1 2.2-.3 3.1-.4.6-.1 1-.1 1 0z" class="t"/><path d="M913.5 370.3c-.6.3-1.2.7-1.6 1.3s-.5 1.4-.1 1.9c.5.7 1.6.6 2.3 0 .4-.3.8-.8.9-1.4.1-.5-.1-1.2-.5-1.5-.4-.4-1.1-.4-1.5-.1" fill="#fafafa"/><path d="M447.6 418.5h91.5v184.6H447.6z" fill="#bac4d3"/><path d="M451.9 602.7h0a14.3 14.3 0 0 1-14.3-14.3V432.8a14.3 14.3 0 0 1 14.3-14.3h0a14.3 14.3 0 0 1 14.3 14.3v155.6a14.3 14.3 0 0 1-14.3 14.3z" class="y"/><path d="M459.4 425.9a1.75 1.75 0 0 0 .1.5c0 .4.1.8.1 1.4l.4 5.2 1.4 19.2 4.1 63.2 3.8 63.2c.3 8.1-.7 14.8-2.4 19a29.38 29.38 0 0 1-2.3 4.7l-.8 1.1c-.2.2-.3.4-.3.4-.1-.1 1.5-2 3-6.3 1.6-4.2 2.4-10.8 2-18.9l-4.1-63.2-3.8-63.2-1-19.2-.2-5.2v-1.4c-.1-.3-.1-.5 0-.5z" class="k"/><g class="y"><path d="M531 626h14.8v176.8H531z"/><path d="M641.4 626H430.3h0c0-12.7 10.3-22.9 22.9-22.9h165.2c12.7 0 23 10.3 23 22.9h0z"/><path d="M551.3 626.5c0 .3-5.8.5-12.9.5-7.2 0-12.9-.2-12.9-.5s5.8-.5 12.9-.5c7.1-.1 12.9.2 12.9.5zm51.6 192.3h-2.1c0-34.6-28.2-62.8-62.8-62.8s-62.8 28.2-62.8 62.8h-2.1c0-35.8 29.1-64.9 64.9-64.9 35.8.1 64.9 29.2 64.9 64.9z"/><circle cx="474.2" cy="817.7" r="9.7"/><path d="M612 818.1c0 5.4-4.4 9.7-9.7 9.7-5.4 0-9.7-4.4-9.7-9.7 0-5.4 4.4-9.7 9.7-9.7 5.4 0 9.7 4.3 9.7 9.7zm-9.7-15.3c0 .3-28.2.5-63 .5s-63.1-.2-63.1-.5 28.2-.5 63.1-.5l63 .5zm-86.7-200.1c0 .1-1.1.1-3.2.2l-8.7.2-28.7.4-15.8.1c-4.8 0-9.2.2-12.7 1.2-3.5.9-6.1 2.4-7.7 3.7-1.6 1.2-2.4 2.1-2.4 2 0 0 .1-.3.5-.7.3-.4.9-1 1.7-1.7 1.6-1.4 4.1-3.1 7.7-4.1 3.6-1.1 8-1.3 12.9-1.4l15.8-.2 28.7-.1 8.7.1 3.2.3z"/></g><path d="M509.4 409.6h0c11 0 20.1-7.2 20.3-40.6 0-6.7-.2-12.5-.2-12.5s15.9-1.4 17-16.8c1.2-15.4.3-51 .3-51h0c-17.7-8.8-38.4-7.2-54.9 3.6l-2.4 1.6.8 75.5c0 10.7 8.2 40.2 19.1 40.2z" class="AA"/><path d="M529.5 356.3s-10 .2-20.1-6.9c0 0 4.1 11.4 19.9 10.9l.2-4z" class="AB"/><g class="k"><path d="M543 313.5c0 1.1-.9 2.1-2.1 2.2a2.13 2.13 0 0 1-2.3-1.9c0-1.1.9-2.1 2.1-2.2a2.13 2.13 0 0 1 2.3 1.9zm.4-2.4c-.3.3-1.9-.9-4.3-.9s-4.1 1.2-4.4.9c-.1-.1.2-.6.9-1.2a6.3 6.3 0 0 1 3.5-1.1c1.5 0 2.7.5 3.4 1.1.8.6 1.1 1.1.9 1.2zm-23.6 3c0 1.1-.9 2.1-2.1 2.2a2.13 2.13 0 0 1-2.3-1.9c0-1.1.9-2.1 2.1-2.2 1.2-.2 2.2.7 2.3 1.9zm.4-2.6c-.3.3-1.9-.9-4.3-.9s-4.1 1.2-4.4.9c-.1-.1.1-.6.9-1.2a6.3 6.3 0 0 1 3.5-1.1c1.5 0 2.7.5 3.4 1.1.8.6 1 1.1.9 1.2z"/><path d="M528.8 328.7c0-.1 1.5-.4 3.8-.7.6-.1 1.2-.2 1.3-.6s-.1-1.1-.4-1.8l-1.8-4.5c-2.5-6.4-4.3-11.7-4-11.8s2.5 5 5 11.5l1.7 4.5c.2.7.6 1.4.3 2.3-.2.4-.6.8-1 .9s-.7.1-1 .1c-2.4.2-3.9.3-3.9.1zm-7 1.6c.4 0 .4 2.5 2.6 4.3s4.9 1.5 5 1.9c0 .2-.6.5-1.8.5-1.1 0-2.8-.3-4.1-1.4s-1.9-2.6-2-3.6c-.2-1.1.1-1.7.3-1.7zm-1-27.9c-.2.6-2.6.3-5.4.7-2.8.3-5 1.1-5.4.5-.2-.3.2-.9 1.1-1.5s2.3-1.2 4-1.4 3.2.1 4.2.5c1.1.4 1.6.9 1.5 1.2zm21.8 2c-.4.5-2 0-4 0-2-.1-3.6.4-4-.2-.2-.3.1-.8.8-1.3s1.9-.9 3.3-.9c1.3 0 2.5.5 3.2 1.1.6.5.9 1 .7 1.3zm4.6-18.7c-.2-2.4-1.1-4.7-2.4-6.7 1-2.2.8-5-.8-6.9-2.3-2.6-6.7-2.8-9.3-.5h-.1c.8-1.3.2-3.4-1.1-4.4-1.5-1.2-3.5-1.3-5.4-1.3-3.5.1-11.9 2.9-18.3 5.3-.4.1-.8.1-1.2.2-5 1-10.7 3-14.6 6.3-4.8 4.1-7.5 10-9.1 16.2-1.6 6.1-1.7 12.5-.4 22.9 1.9-1.7 8.7-6 9.7-3.6.6 1.3.4 2.9.5 4.3.1 1.5.8 3.1 2.2 3.5 1.1.3 2.4-.4 3-1.3.7-1 .9-2.2 1-3.4.4-4.8-.8-9.6-.1-14.4.7-4.7 3.5-9 7.4-11.7s8.9-3.7 13.5-2.8c2.9.6 5.7 1.9 8.6 1.8 4.2-.2 8.5-3.2 12.3-1.4.8.4 1.5.7 2.2 1.1 1.4.8 2.1 1.7 2.5.9.2-.5 0-2.7-.1-4.1z"/></g><path d="M493.5 311c-.3-.1-9.9-1.3-9 9.8s12.1 6.6 12.1 6.2c-.1-.3-3.1-16-3.1-16z" class="AA"/><path d="M492.7 323.4c-.1 0-.2.2-.5.3-.3.2-.9.3-1.5.1-1.2-.3-2.4-2.1-2.6-4.1-.1-1 0-2 .3-2.8s.8-1.5 1.4-1.6c.6-.2 1 .1 1.2.4s.1.5.2.5c0 0 .2-.2.1-.7-.1-.2-.2-.5-.5-.7a1.39 1.39 0 0 0-1.1-.2c-.9.1-1.6 1-1.9 1.9-.4.9-.6 2-.4 3.2.3 2.2 1.6 4.3 3.3 4.6.8.1 1.5-.1 1.8-.4.2-.3.3-.5.2-.5z" class="AB"/><path d="M599.5 781l8.7-12.2-33.4-23.4-13.8 18.8 1.9 1.6c8.6 7.2 44.2 36.3 51.5 39 8.1 3.1-14.9-23.8-14.9-23.8z" fill="#212121"/><g class="l o"><path d="M572.8 772.8c1.5-3 2.3-6.7 1.3-9.9-.9-3.3-2.2-5.7-6.3-8.1l-6.6 9 11.6 9z"/></g><g class="l o"><path d="M610.4 794.6s7.6 10 5.2 10.7c-2.4.6-39.4-27.3-54.7-41.1l.6-.7 42.9 33s4-3.2 6-1.9z"/></g><g class="k"><path d="M561 763.1l.5.5 1.5 1.3 5.7 4.7c4.8 3.9 11.6 9.3 19.2 15 7.6 5.8 14.6 10.8 19.7 14.4l6.1 4.2 1.7 1.1c.4.3.6.4.6.4s-.2-.2-.5-.4c-.5-.4-1-.8-1.6-1.2-1.6-1.2-3.6-2.6-6-4.3l-19.6-14.5-19.3-14.9-5.8-4.6c-.6-.5-1.1-.9-1.6-1.2-.4-.4-.6-.5-.6-.5z"/><path d="M604 797c.1.1 1.2-1.2 3.2-1.9 1.9-.8 3.7-.5 3.7-.7 0-.1-1.8-.6-3.9.2-2 .8-3.1 2.4-3 2.4zm-5.9-12c0 .1.9-.1 1.9-.4 1-.4 1.8-.8 1.8-.9s-.9.1-1.9.4c-1.1.4-1.9.8-1.8.9zm-1.6-3.3c0 .1.8.2 1.7.1s1.7-.2 1.7-.4c0-.1-.8-.2-1.7-.1-1 .1-1.8.3-1.7.4zm.6-4.3c-.1.1.6.8 1.5 1.5s1.7 1.2 1.8 1.1-.6-.8-1.5-1.5-1.8-1.2-1.8-1.1zm1-2.5c-.1.1.4 1.1 1.5 2 1 .9 2.1 1.3 2.1 1.2.1-.1-.8-.7-1.8-1.6s-1.7-1.7-1.8-1.6z"/><path d="M601.2 783.1s.7.7 2.1 1.6c.7.4 1.6.8 2.6 1.2.5.2 1 .4 1.7.4.3 0 .7 0 1-.2s.4-.7.3-1.1c-1.2-2.5-4.1-2.9-5.6-2.5-.8.2-1.4.6-1.7.8l-.5.5c.1.1.7-.7 2.3-1 .7-.2 1.7-.1 2.6.2s2 1.1 2.4 2c.1.5-.3.8-.8.7-.5 0-1.1-.2-1.5-.4a12.7 12.7 0 0 1-2.6-1.1c-1.4-.6-2.2-1.2-2.3-1.1z"/><path d="M601.7 783.6s.7-.2 1.3-1.2c.3-.5.5-1.2.6-1.9 0-.7 0-1.7-.9-2.4-.5-.3-1.2.1-1.4.5s-.3.8-.3 1.2c-.1.7 0 1.4.1 2 .2 1.1.5 1.7.6 1.7s-.1-.7-.2-1.8c0-.5 0-1.2.1-1.9 0-.6.4-1.6 1-1.3s.7 1.3.7 1.9c0 .7-.2 1.3-.4 1.8-.6 1-1.2 1.3-1.2 1.4zm-33.5-28.7c0 .1 1 .6 2.3 1.9s2.9 3.4 3.6 6.1.4 5.3-.2 7c-.5 1.7-1.2 2.7-1.1 2.7 0 0 .2-.2.5-.6s.6-1.1.9-2c.6-1.7 1-4.4.3-7.2-.8-2.8-2.4-5-3.9-6.2-.7-.6-1.4-1-1.8-1.3-.3-.3-.6-.4-.6-.4zm11.1 17.9c-.1.1 1.8 2 4.4 4s5 3.3 5 3.2c.1-.1-2.1-1.6-4.7-3.6l-4.7-3.6zm-6.4-4.8c-.1 0-.2.6-.3 1.2s-.3 1.2-.2 1.2c.1.1.5-.4.7-1.1s-.1-1.3-.2-1.3zm-.2-4.7c-.1 0-.2.5-.1 1.1s.3 1 .4 1 .2-.5.1-1.1-.2-1-.4-1zm-2.4-4c-.1.1.4.4.7 1 .4.5.5 1 .6 1s.2-.7-.2-1.3-1-.8-1.1-.7zm-2-2.4c-.1.1-.1.4.1.7s.4.5.6.4c.1-.1.1-.4-.1-.7s-.4-.5-.6-.4z"/></g><g opacity=".3"><path d="M569.2 752.9l33.8 23.3 1-1.3-32.9-24.7z"/></g><path d="M761.8 819.6l-3.1-14.3-38.9 8.9 4.5 22.3 2.4-.3c10.9-1.5 55.2-8.2 62-11.8 7.7-3.9-26.9-4.8-26.9-4.8z" fill="#212121"/><g class="l o"><path d="M738.5 833.5c-1.2-3.1-3.3-6-6.3-7.5s-5.6-2.2-10-.7l2.2 10.7 14.1-2.5z"/></g><g class="l o"><path d="M778.8 820.6s12.2 1.1 11.2 3.2c-1.1 2.2-45.6 10.6-65.6 12.7l-.1-.9 52-9.5c0 .1.3-5 2.5-5.5z"/></g><g class="k"><path d="M723.7 835.8s.2 0 .7-.1l1.9-.3 7.1-1.1c6-.9 14.3-2.3 23.5-4.1 9.1-1.7 17.4-3.5 23.3-4.8l7-1.6c.7-.2 1.3-.3 1.9-.5.4-.1.7-.2.7-.2s-.2 0-.7.1c-.6.1-1.2.2-1.9.4l-7.1 1.5c-6 1.3-14.2 3-23.4 4.7l-23.4 4.2-7.1 1.2c-.7.1-1.4.2-1.9.3-.4.2-.6.2-.6.3z"/><path d="M776.4 826.8c.1 0-.1-1.7.7-3.6.7-1.9 2-3 1.9-3.1 0-.1-1.6.9-2.4 3-.7 2-.3 3.7-.2 3.7zm-12.6-3.5c.1 0 .5-.7 1-1.7.4-1 .6-1.8.5-1.9-.1 0-.5.7-1 1.7-.4 1-.6 1.8-.5 1.9zm-3.4-1.1c.1.1.6-.4 1.2-1.2.6-.7.9-1.4.8-1.4-.1-.1-.6.4-1.2 1.2-.6.7-1 1.3-.8 1.4zm-2.7-3.2c0 .1 1 .1 2.1-.1s2-.5 2-.6-1-.1-2.1.1c-1.2.2-2.1.5-2 .6zm-1.2-2.4c0 .1 1.1.4 2.4.2s2.3-.6 2.3-.8c0-.1-1.1.1-2.3.3l-2.4.3z"/><path d="M764.5 819.7c0 .1 1 0 2.5-.5.8-.2 1.6-.6 2.6-1.1.5-.3.9-.5 1.4-.9.2-.2.4-.5.5-.9 0-.4-.2-.8-.6-.9-2.6-.8-4.8 1-5.4 2.4-.4.7-.5 1.4-.5 1.8s0 .7.1.7 0-1 .7-2.3c.4-.6 1-1.3 1.9-1.8.8-.4 2.1-.7 3-.4.5.2.4.7 0 1l-1.3.9c-.9.5-1.7.9-2.5 1.1l-2.4.9z"/><path d="M765.2 819.7s.3-.7 0-1.8c-.2-.5-.5-1.1-1-1.7-.5-.5-1.3-1.1-2.3-.9-.6.2-.7.9-.6 1.3s.4.8.6 1c.5.5 1 1 1.5 1.3.9.6 1.6.8 1.6.7s-.6-.3-1.4-1c-.4-.3-.9-.7-1.3-1.3-.4-.5-.9-1.3-.2-1.6.6-.2 1.4.3 1.8.7.5.5.8 1 1 1.5.3 1.1.2 1.8.3 1.8zm-42.7 5.4c0 .1 1.1-.3 2.9-.4s4.3.1 6.8 1.3c2.4 1.2 4.1 3.2 5 4.7s1.2 2.6 1.3 2.6c0 0 0-.3-.1-.8s-.4-1.2-.8-2c-.8-1.6-2.5-3.6-5-4.9s-5.2-1.5-7-1.3c-.9.1-1.6.3-2.1.5l-1 .3zm20.2 3.8c0 .1 2.6 0 5.8-.5 3.2-.6 5.7-1.4 5.6-1.5 0-.1-2.6.5-5.7 1.1l-5.7.9zm-7.7 1.4c-.1.1.3.5.7 1s.6 1 .7 1 .1-.6-.3-1.2c-.4-.7-1-.9-1.1-.8zm-3.5-3c-.1.1.3.5.7.8.5.3.9.5 1 .4s-.3-.5-.7-.8c-.5-.3-.9-.5-1-.4zm-4.5-.8c.1.1.6 0 1.2.1s1.1.3 1.2.2-.3-.6-1.1-.7c-.8 0-1.3.3-1.3.4zm-3-.2c0 .1.2.3.6.3.3.1.6 0 .7-.1 0-.1-.2-.3-.6-.3-.4-.1-.7 0-.7.1z"/></g><g opacity=".3"><path d="M721.7 823.2l39-9.3-.3-1.5L721 820z"/></g><path d="M660.7 473.4c0-.7 6.7-7 7.8-7.4s20.6-8.5 21-7.6 2.7 5.4-1.3 7.5l-3.1 1 11.2.9s12.5 9.2 12.3 11.2-1.8 3.3-2.9 2.3c-1.1-.9 2.9 6.3 2.9 6.3s0 3.1-1.6 2.5c-1.6-.5-4.2-3.4-4.2-3.4s2.3 3.8 1.6 4.5-4.3.9-4.7 0-.9-2.5-.9-2.5l-2.2.2v3l-33.1 1-2.8-19.5z" class="AB"/><path d="M532.5 382.2l10.1 11.9 40.4 70.7 78.7 7.8 1.8 22.8-90.8 8.6-50.6-91.7z" fill="#eaeaea"/><path d="M540.5 416.7l-7.8-29.5-.2-9.6-43.8-19.9-8.4 10.5 1 .5c-3.4 3.6-29 31.2-27.4 51.5 1.4 18.3 40 133.8 40 133.8l88-25.7-41.4-111.6z" fill="#f9f9f9"/><path d="M531.7 387.6l-2.5 12.1 6.4 12.1v8.9l46.1 107.6 13.6 4.6 2.3-9.2s-38.4-65.5-45-84l-16.4-45-4.5-7.1z" class="z"/><path d="M461.7 441.8c0 1.1 79.5 77.9 79.5 77.9l107.3-21-3.4-22.9-73.3 2c-8 .3-14.4-2.3-19.3-8.7l-50.7-65.9c-1.1-1.5-40.1 38.6-40.1 38.6z" fill="#f9f9f9"/><path d="M645.1 475.8l.3 1.4.7 4.4 2.7 17.1v.2h-.2l-85.7 16.6-7.1 1.4s-4.9.8-7.4.7c-5-.2-10.1-1.6-14.6-4.4-2.2-1.4-4.3-3.1-6.1-5l-5.3-6-10.7-12.3-45.9-52.8-.1-.1v-.1c-.1-.3-.2-.5-.3-.8-1.5-3.9-2.6-8.1-2.6-12.4-.1-4.2.9-8.5 3.1-12.1 2.1-3.6 5.4-6.4 8.8-8.6 3.5-2.1 7.5-3.5 11.5-3.8 4-.4 8.1.3 11.7 2.1 3.6 1.7 6.6 4.4 9.1 7.3 2.6 2.9 4.8 6 6.9 9 2.2 3 4.3 6 6.4 9 8.5 11.8 17 22.7 25.2 32.7l6.1 7.3c2 2.4 3.9 4.8 6.1 6.8 2.2 1.9 5 2.9 7.8 3.2s5.6.3 8.4.2l52.2-.8 14.1-.2h3.7 1.2s-.4 0-1.3.1c-.9 0-2.1.1-3.7.1l-14.2.4-52 1.2c-2.7.1-5.6.1-8.5-.2s-5.9-1.3-8.3-3.3c-2.3-2-4.2-4.5-6.2-6.8l-6.1-7.3c-8.2-10-16.7-20.9-25.3-32.7l-6.4-9c-2.1-3-4.3-6.1-6.9-8.9-2.5-2.8-5.4-5.4-8.8-7-3.4-1.7-7.3-2.4-11.2-2-7.7.7-15.3 5.1-19.5 11.9-2.1 3.4-3 7.5-2.9 11.5 0 4.1 1 8.1 2.5 12 .1.3.2.6.3.8l-.1-.1 45.8 52.8 10.7 12.3c1.8 2 3.5 4.1 5.2 6 1.8 1.9 3.8 3.5 5.9 4.9 4.3 2.7 9.3 4.1 14.1 4.3 2.4.1 4.8-.2 7.2-.6 2.4-.5 4.7-.9 7.1-1.3l85.8-16.1-.2.2-2.4-17c-.3-1.9-.5-3.4-.6-4.4v-1.8zm-112.6-98.2c.1 0-.3 2-.7 5.4-.5 3.4-.7 8.4-1.9 14.2l-.1.6-.5-.3-15.7-9-23.1-13.6-6.9-4.2c-1.6-1-2.5-1.6-2.5-1.7s1 .4 2.7 1.3l7.1 3.9 23.2 13.3 15.6 9.1-.7.4c1.3-5.7 1.6-10.7 2.2-14.1.3-1.7.6-3.1.8-4 .3-.9.4-1.4.5-1.3z" class="t"/><path d="M691.1 475.8l-19.2-5.2-15.9 8h-9l-1.4.6 2.6 17.2 2.3.3s2.6 1.8 7.6 2.9c5.1 1.1 12.5-2.2 12.5-2.2l10.1-5.6 7.2-2.1 5.4 3.1s.5 2.2.5 2.9 2 1.6 3.1 1.6 1.4-2.5 1.4-2.5l-1.3-5.4 2.5 2.3h6.3v-4l-14.7-11.9z" class="AA"/><g class="k"><path d="M648.5 601.7L566 748.6l44.1 29.9 73-129.4-12.3-47.4z"/><path d="M493.8 554s-9.5 39.9 16.2 48 159.5 12.4 159.5 12.4l49.7 205.4 42.6-6-36.7-220.1c-2.7-15.4-14.7-27.5-30.1-30.2l-112.5-21.6c-1.4-2-6.8-13.5-6.8-13.5L493.8 554z"/></g><path d="M685.5 677.2s-.2-.4-.4-1.1c-.3-.7-.6-1.8-1-3.1-.8-2.7-1.8-6.7-2.8-11.7l-3.6-17.4c-1.4-6.5-2.9-13.8-6.2-20.7-1.7-3.4-3.9-6.6-7.3-7.7-3.4-1.2-6.9-1.7-10.1-2.2-6.6-.9-12.6-1.3-17.7-1.7l-12-.6c-1.3-.1-2.4-.1-3.3-.1-.7 0-1.1-.1-1.1-.1s.4-.1 1.1-.1 1.8-.1 3.3-.1c2.8 0 6.9 0 12 .3a223.83 223.83 0 0 1 17.8 1.4c3.3.5 6.8 1 10.4 2.2.9.4 1.8.7 2.6 1.3s1.5 1.2 2.2 2c1.3 1.5 2.3 3.2 3.2 4.9 3.4 7.1 4.8 14.4 6.2 21l3.3 17.5 2.5 11.7c.5 2.8 1 4.3.9 4.3z" class="t"/><path d="M1171.4 505.1l-531.3-1.9-.1 15.8 31.6.1-1.1 307.2 11.1.1 1.1-307.3 439 1.6-1.1 307.2 11.1.1 1.1-307.3 38.5.2z" fill="#d4dff4"/><path d="M988.9 417.9l29.4 86.1h133.5l-1-4.4-54-1.7-24.8-80z" class="s"/><path d="M1048 458.4c.9 3.5-.6 7-3.4 7.7-2.7.7-5.7-1.5-6.6-5.1-.9-3.5.6-7 3.4-7.7s5.7 1.5 6.6 5.1z" class="o"/><path d="M857.6 415.5l-29.5 86.1H694.7l.9-4.4 54-1.7 24.9-80z" class="s"/><path d="M798.4 456c-.9 3.5.6 7 3.4 7.7 2.7.7 5.7-1.5 6.6-5.1.9-3.5-.6-7-3.4-7.7-2.7-.7-5.7 1.5-6.6 5.1z" class="o"/><circle transform="matrix(.1606 -.987 .987 .1606 299.929 1295.6581)" cx="911.7" cy="471.5" r="16.3" class="t"/><path d="M858.4 465h106.7v39H858.4z" fill="#cae9f9"/><g class="k"><use xlink:href="#F"/><use xlink:href="#F" y="5.6"/><use xlink:href="#F" y="11.2"/><use xlink:href="#F" y="16.8"/><path d="M918.9 503.1c-.3 0-.5-8.4-.5-18.7s.2-18.7.5-18.7.5 8.4.5 18.7-.3 18.7-.5 18.7z"/></g></svg>