<?xml version="1.0" encoding="utf-8"?>
<!-- Generator: Adobe Illustrator 25.2.0, SVG Export Plug-In . SVG Version: 6.00 Build 0)  -->
<svg version="1.1" id="Layer_1" xmlns="http://www.w3.org/2000/svg" xmlns:xlink="http://www.w3.org/1999/xlink" x="0px" y="0px"
	 viewBox="0 0 120 120" style="enable-background:new 0 0 120 120;" xml:space="preserve">
<style type="text/css">
	.st0{opacity:0.4;fill:#BDC5D1;enable-background:new    ;}
	.st1{fill:#FFFFFF;stroke:#BDC5D1;stroke-width:3;stroke-linecap:round;stroke-linejoin:round;stroke-miterlimit:10;}
	.st2{fill:none;stroke:#BDC5D1;stroke-width:3;stroke-linecap:round;stroke-linejoin:round;stroke-miterlimit:10;}
	.st3{fill:#F7F7F7;}
	.st4{fill:none;stroke:#377DFF;stroke-width:2;stroke-linecap:round;stroke-linejoin:round;stroke-miterlimit:10;}
</style>
<path class="st0" d="M107.5,104H23.1c-2.1,0-3.8-1.8-3.8-4.1V32.5c0-2.3,1.7-4.1,3.8-4.1h84.4c2.1,0,3.8,1.8,3.8,4.1v67.3
	C111.3,102.2,109.6,104,107.5,104z"/>
<path class="st1" d="M103.3,98.5H16.7c-2.2,0-3.9-1.7-3.9-3.9V30.2c0-2.2,1.7-3.9,3.9-3.9h86.5c2.2,0,3.9,1.7,3.9,3.9v64.3
	C107.1,96.8,105.4,98.5,103.3,98.5z"/>
<rect x="8.3" y="69.1" class="st0" width="67.7" height="15.4"/>
<line class="st2" x1="12.9" y1="88" x2="107.1" y2="88"/>
<path class="st2" d="M62,112H56c-1.4,0-2.6-1.2-2.6-2.6V98.5h11.4v10.8C64.8,110.8,63.6,112,62,112z"/>
<path class="st2" d="M64.8,105.5c10.2,0.7,17.7,2.8,17.7,5.4c0,3.1-10.8,5.6-24.1,5.6c-13.3,0-24.1-2.5-24.1-5.6
	c0-2.7,8.2-5,19.2-5.5"/>
<rect x="8.3" y="13.7" class="st0" width="44.8" height="44.2"/>
<rect x="62.7" y="17.9" class="st0" width="47.6" height="47.3"/>
<rect x="4.7" y="8.9" class="st3" width="45.1" height="45.1"/>
<path class="st4" d="M30.9,45.8h-8.7c-3.2,0-5.8-2.6-5.8-5.8V29.5h20.4v10.4C36.7,43.2,34.1,45.8,30.9,45.8z"/>
<path class="st4" d="M20.3,29.5c0,0-1.8-12,5.8-11.6c7.2,0.3,6,11.6,6,11.6"/>
<rect x="66.7" y="15.2" class="st3" width="47.8" height="46.9"/>
<path class="st4" d="M81.3,30.5l-4,3.5l3,6.1l4.7-3.3l-0.3,14.5h13.5V37l3.9,2.4l3.1-6.8l-9.5-6.3l-1.2,1.5
	c-1.4,1.8-4.1,1.9-5.7,0.4l-2.2-2.1L81.3,30.5z"/>
<rect x="5.3" y="67" class="st3" width="68.4" height="15.8"/>
<line class="st4" x1="9.2" y1="72.9" x2="43.9" y2="72.9"/>
<line class="st4" x1="9.3" y1="77.9" x2="35.2" y2="77.9"/>
<line class="st4" x1="60.9" y1="77.3" x2="70.3" y2="77.3"/>
</svg>
